<svg xmlns="http://www.w3.org/2000/svg" viewBox="0 0 384.64 635.09"><defs><style>.cls-1{fill:#e5e5e5;}.cls-2{fill:#442111;}.cls-3{fill:#442112;}.cls-4{fill:#f096a1;}.cls-5{fill:#ef97a1;}.cls-6{fill:#4b291c;}.cls-7{fill:#644336;}.cls-8{fill:#fee2d9;}.cls-9{fill:#cdb1a4;}.cls-10{fill:#4e2a1c;}.cls-11{fill:#4c4a4f;}.cls-12{fill:#f8f9fb;}.cls-13{fill:#cd9857;}.cls-14{fill:#cd9856;}.cls-15{fill:#f7fafa;}.cls-16{fill:#f7f9fb;}.cls-17{fill:#4c494e;}.cls-18{fill:#b3ceea;}.cls-19{fill:#4c494f;}.cls-20{fill:#b5cde9;}.cls-21{fill:#cb9857;}.cls-22{fill:#f5f6f6;}.cls-23{fill:#ebf4f8;}.cls-24{fill:#e9eff2;}.cls-25{fill:#544943;}.cls-26{fill:#f0ede6;}.cls-27{fill:#c39357;}.cls-28{fill:#c2925a;}.cls-29{fill:#f1e7dd;}.cls-30{fill:#c29057;}.cls-31{fill:#371a0d;}.cls-32{fill:#43271a;}.cls-33{fill:#c4965f;}.cls-34{fill:#ca9a69;}.cls-35{fill:#e8d5ca;}.cls-36{fill:#ca9c6d;}.cls-37{fill:#d09e6a;}.cls-38{fill:#ddd2ce;}.cls-39{fill:#e3cac0;}.cls-40{fill:#4b2a1d;}.cls-41{fill:#e1d0c3;}.cls-42{fill:#a97e56;}.cls-43{fill:#b8885a;}.cls-44{fill:#fef8db;}.cls-45{fill:#eddccb;}.cls-46{fill:#ceaf92;}.cls-47{fill:#8f837f;}.cls-48{fill:#4f3e35;}.cls-49{fill:#72554b;}.cls-50{fill:#74421d;}.cls-51{fill:#e7ceb8;}.cls-52{fill:#cd9955;}.cls-53{fill:#6e615a;}.cls-54{fill:#64504b;}.cls-55{fill:#725f57;}.cls-56{fill:#52453f;}.cls-57{fill:#413330;}.cls-58{fill:#564535;}.cls-59{fill:#c69b6d;}.cls-60{fill:#452313;}.cls-61{fill:#cc9855;}.cls-62{fill:#cb9656;}.cls-63{fill:#683c14;}.cls-64{fill:#6c4121;}.cls-65{fill:#837574;}.cls-66{fill:#7a614f;}.cls-67{fill:#8a7b6f;}.cls-68{fill:#dcc8c5;}.cls-69{fill:#caa47a;}.cls-70{fill:#643b17;}.cls-71{fill:#6f4321;}.cls-72{fill:#784819;}.cls-73{fill:#6c4321;}.cls-74{fill:#cd9d6c;}.cls-75{fill:#704128;}.cls-76{fill:#996730;}.cls-77{fill:#704117;}.cls-78{fill:#3f3a3c;}.cls-79{fill:#6e421b;}.cls-80{fill:#6a3c16;}.cls-81{fill:#6c3f1c;}.cls-82{fill:#663517;}.cls-83{fill:#6f441d;}.cls-84{fill:#403029;}.cls-85{fill:#e9b3bf;}</style></defs><g id="Layer_2" data-name="Layer 2"><g id="Layer_1-2" data-name="Layer 1"><path class="cls-1" d="M244.15,593c9.55,1,19.13,1.82,28.65,3.05,17.27,2.22,34.69,3.78,50.94,10.79a17.51,17.51,0,0,1,3.09,1.63c4.24,3,4.3,6.22-.07,9-4.55,2.89-9.76,4.24-14.93,5.51-17.6,4.36-35.55,6.33-53.58,8.12-40.63,4-81.36,4.37-122.1,3.68-21.06-.36-42.11-1.62-63.12-3.63-19.53-1.87-38.95-4.07-57.94-9.15a40.73,40.73,0,0,1-9.7-3.91C-.15,615-.35,611.5,5,608.1c6.58-4.19,14.2-5.57,21.69-7,9.74-1.9,19.57-3.38,29.36-5,3.83,2.74,6.8,6.58,11.33,8.48,1.54.64,3.1,1.68,4.64,1.46,6.25-.92,12.55-.31,18.78-.82,5.61-.45,9.1-4.33,11.78-8.95,1.41-2.43,2.59-5.11,5.88-5.6,5.61-.57,11.18-1.55,16.83-1.55H201a19.19,19.19,0,0,1,6.4.62c2,.93,2.72,2.05.3,3.36-1.32.71-2.86.81-4.27,1.33-4.45,1.61-7.83,4.35-9.32,9-1.84,5.7.86,10.47,6.76,11.48,3.15.54,6,2,9,2.7,7.85,1.89,15.93.72,23.78-.42,3.69-.54,5.42-4.49,5.36-8.15a26.83,26.83,0,0,1,2.48-11,10.77,10.77,0,0,1,.52-1.33C242.73,595.41,242.67,593.75,244.15,593Z"/><path class="cls-2" d="M204.82,50.72c3.3-3.34,7.09-2.53,10.64-.83s5.13.65,6.9-2.59c4.32-7.9,9.34-15.4,16.3-21.31,7.22-6.13,12.36-4.47,14.86,4.71,2,7.5,1.85,15.2,1.17,22.81-.3,3.32.79,4.19,3.64,5,15.13,4.43,27.26,13.07,35.49,26.61,1.67,2.74,3.37,3.06,6.06,2.64,9.23-1.43,18.51-2.52,27.87-2,4.42.23,9.68-.27,12.08,4.29,2.56,4.86-1,9-3.73,12.67-8.4,11.4-19.09,20.39-30.94,28-2.74,1.75-4.19,3.5-4.38,7-.41,7.32-1.63,14.58-4.83,21.29-2,4.21-4.75,7.51-10.14,5.07-1.6-.73-2.09.1-2.58,1.25-3.68,8.62-10.65,11-19.21,9.64-4.22-.68-6.58.59-8.87,4.18-22.66,35.43-31.84,74.18-29.69,116,1.48,28.64,8.57,56.14,16,83.61.9,3.34,1.55,6.75,2.31,10.12,1.7.2,2-1.17,2.73-1.93a233.78,233.78,0,0,1,57.05-46.53c14.29-8.32,27.91-17.5,39.82-29.09,14.8-14.42,22.94-32,25.73-52.26.44-3.25-.43-8,4.13-8.62s5.85,3.86,7.3,7.06c5.34,11.76,4.92,24,1.84,36.16-5.65,22.35-18.73,40.18-34.76,56.17-14.4,14.36-30.65,26.65-45.53,40.49C279.8,411,260.73,434,249.58,462.79a81.33,81.33,0,0,0-5.61,25.7c-.61,12.46-1.76,24.9-2.54,37.35-.62,9.75-2,19.57,1.7,29.08,1,1.6-.22,3.58.89,5.17a64.72,64.72,0,0,1-.07,13c-.91,6.21-.13,12.46-.41,18.69-.08,1.79.35,3.62-.37,5.37l-.1-.08c-2,.2-2.65-1.22-3.22-2.72-.74-7.93.16-15.89-.53-23.82a67.69,67.69,0,0,1-.1-8.78,8,8,0,0,0-1-5.6c-3.84-7.58-3.29-15.73-2.83-23.78.24-4.26.68-8.54,1.26-12.78a9.32,9.32,0,0,0,.58-6c-.57-6.59.75-13,1.3-19.55a22.29,22.29,0,0,0-.22-5.88c1.23-17.44,2.75-34.88,2.87-52.38a245.3,245.3,0,0,0-.29-26.85c-1.26-16.63-5.33-32.76-9.87-48.75q-3.13-11-5.2-22.31a123.19,123.19,0,0,1-3.29-18.17c.37-2.32-.32-4.49-.91-6.67-.39-6.19-2.11-12.3-1-18.57a68.83,68.83,0,0,0,.08-24.54,18.58,18.58,0,0,1-.34-5.26c1.15-10.33,2.55-20.62,5.23-30.69a238.44,238.44,0,0,1,10.15-30.34c4-8,7.86-16.1,12.61-23.72,3.17-5.07,3.09-5-2.77-7.21-6.56-2.44-12.92-5.35-18.51-9.61-2-1.53-5.34-3.62-3.65-6.16s4.44.29,6.51,1.36a113.64,113.64,0,0,0,32.85,11.35c5.32.93,10.3.57,14.15-3.87,2.53-3.23,1.71-7.56,3.62-11,2.75-1.73,3.9.66,5.22,2.17,2.44,2.78,4.26,2,5.7-.82a36.81,36.81,0,0,0,3.81-16.33c.11-6.73,2.69-11,8.6-14.31,6.52-3.61,12.12-8.64,17.25-14.09a53.19,53.19,0,0,0,12.3-14.15c2.3-3.8,1.79-4.66-2.82-5.93-4.87-.06-9.74,0-14.6,0-5.87-.46-11.47,1.34-17.2,2.09-3.71.49-6.57-.37-8.41-3.74-5.34-9.78-13.61-16.54-22.95-22.17-4.16-1.6-8.32-3.2-12.6-4.46a17.21,17.21,0,0,1-3.5-1.78c-1.69-1.65-1.91-3.75-1.81-5.94.06-5.82.22-11.63-.16-17.45a23.75,23.75,0,0,0-.37-3.47c-1.39-6.45-3.75-7.23-8.62-2.86-3.12,2.8-5.37,6.35-8.14,9.45A7.86,7.86,0,0,0,230,44.3c-4.46,8-5.67,7.27,3.6,11.53,4.9,2.26,8.66,6,13.22,8.67,4.47,1.75,7.84,5.27,12.09,7.37,12.23,5.9,22.16,14.71,30.49,25.19,6.29,7.92,3.12,14.36-7.05,15.22A57.49,57.49,0,0,1,268.4,112c-2.87-1-5.92-1.45-8.68-2.8-1.13-.55-2.28-1.06-3.43-1.56-6.81-4-10-10.46-11.49-17.83-2-9.47-2.63-10.1-12-9.41a8.27,8.27,0,0,1-1.49-.08c-3.53-.1-7.05,0-10.58,0-4.6.19-8.17-1.91-11.28-5a29.24,29.24,0,0,1-3-4.35c-1.39-2.75-3-2.35-4.79-.42-2.17,2-2.68,4.59-2.83,7.34a5.06,5.06,0,0,1-.34,1.31c-1,2.07-2.65,4-1.51,6.53.73,1.11,2,2.11.87,3.65-2.85,1.46-4.13,4-5.15,6.89-4.4,12.59-9.18,25-15.33,36.92-3.09,7.13-7,13.86-10.74,20.64-.89,1.59-1.95,3.08-3.91,3.55a2.52,2.52,0,0,1-2.77-2.25c-.19-3.55,2-6.24,3.44-9.18,2.11-4.32,4.75-8.37,6.44-12.9A316.12,316.12,0,0,0,201.12,27.81c.51-4.49.53-9-1.09-13.32-1.69-4.52-6-6.71-9.89-5.22-3,1.13-3.43,2.73-1.12,5,2.16,2.17,4.17,4.32,4.38,7.57-.07,1.34-.33,2.59-1.69,3.26-2.16-.07-2.94-2-4.21-3.2-2.41-2.34-5-4.36-8.27-1.75-3,2.45-2.92,5.76-1.48,9.09.68,1.57,2,2.62,3.19,3.8.92.94,2,1.93,1.29,3.44-.62,1.26-1.92,1.14-3.08,1.15a25.41,25.41,0,0,0-3.49,0c-2.66.41-4.86,1.57-5.52,4.34-.62,2.59.93,4.42,2.8,6a24.08,24.08,0,0,0,4.34,2.45c2.82,1.52,2.27,3.52-.23,4.08-5,1.12-7.25,4.95-9.76,8.64-15.86,23.24-32.73,45.76-49,68.71-8.48,12-15.9,24.61-20.9,38.51-4.1,13.28-3.13,25.52,6.84,36.24,4.22,4.54,3.57,5.75-4.12,8.75,3.09,4,7.17,5.93,11.52,7.45,4.56,1.6,9.33,2.52,13.86,4.2,1.64.6,3.92,1.16,2,3.76a3,3,0,0,1-1.42.54,23.68,23.68,0,0,0-6.18-.09c-8.26-.18-15.4-3.54-22.15-7.92-3.89-2.54-5.58-6-4.13-10.62a7.74,7.74,0,0,1,1.12-2c0-.06-.56.83-1.09,1.8-1.2,8.81-5,16.86-7.21,25.38-3,11.64-3.93,23.59-6,35.38-1.6,6.21-.62,12.53-.78,18.8a44.24,44.24,0,0,1-1.93,13.14,1.21,1.21,0,0,1-1.62.32c0-.81,0-1.62,0-2.43a253.73,253.73,0,0,1,0-32c-.23-8,1.48-15.84,2.78-23.7.32-2,.77-3.78-.3-5.79-9.11-16.95-8.65-34.82-4.77-52.94,4.84-22.6,14.56-43.43,23.7-64.45,6.45-14.82,12.32-29.8,14.16-46a54.93,54.93,0,0,0,.17-12.94c-.58-4.64-1.3-8.45-6.81-10.85-7.57-3.31-8.75-10.21-4.54-17.49a11.93,11.93,0,0,0,.77-1.27c4.26-10.24,8.39-12.74,19.35-11.71C133.78,25.09,143.65,34,147,48c2.64,11,1.72,22.12.15,33.25,1.89.2,2.1-1.46,2.76-2.39,5.54-7.88,11-15.87,16.53-23.74,1.47-2.08,2.06-3.44.09-5.9-4.49-5.63-3.1-11.92,3.27-15.54,2.19-1.24,2.62-2.14,2-4.54-1.83-7.34.06-11.44,6.52-14.83,1.23-.65,2.24-1.08,2.64-2.61,1.53-5.86,5.77-8.29,11.48-8.44s10.36,3.18,12.62,8.88c2,5.08,2.16,10.36,1.43,15.71-.9,6.59-1.75,13.17-2.63,19.76-.3,2.6-.32,5.24-1.31,7.72a17.79,17.79,0,0,1-.09,2.63,11.58,11.58,0,0,0,.1-2.28A7.28,7.28,0,0,1,204.82,50.72Z"/><path class="cls-3" d="M76.05,305.47h1c1.28-.35-.72-5.36,3.08-2.16,2.18,4,1.58,8.42,2.15,12.65a238.09,238.09,0,0,0,8.27,38.83c.6,7,3.23,13.5,5.52,20,1.69,4.87,3.3,9.76,4.66,14.72.43,1.57.94,3.73-.85,4.49s-2.67-1.34-3.59-2.63c-1-1.48-1.44-3.33-2.84-5.08A208.49,208.49,0,0,0,81,422.09a179,179,0,0,0-5.09,35.43c-1.24,26.82,7.07,49.34,29.82,65.29,2.93,2.05,6.5,3.62,7.54,7.59a11.32,11.32,0,0,1-1.21,6.78,206.55,206.55,0,0,1-24.67,39.18A29.16,29.16,0,0,1,70.36,587c-4,.88-7.62,2.6-8.5,7.36.91.32,1-.53,1.37-.88,1.53-1.47,3.06-3.83,5.38-2.57,2.47,1.35.38,3.52-.11,5.29-.41,1.5-.69,2.93.37,4.27a3.3,3.3,0,0,0,3,1.56c1.84-.24,1.18-1.71,1.11-2.75A8.18,8.18,0,0,1,77.46,591c1-.56,2.24-.93,3.3-.12s.44,1.8.26,2.76c-1,5.41,2,8.66,7.67,8.32a11,11,0,0,0,9.14-5.34c12-19.79,27.62-37.11,39.13-57.23,3.51-6.13,6.65-12.39,4.36-19.82-8.35-12.32-3.26-22.69,4.57-32.82,2-2.54,5.43-4.75,3.65-8.93-1.07-4.19-2.28-8.36-2.13-12.75.61-2.3-.61-5.05,1.71-6.91,3.8.7,3.3,4.18,3.91,6.61,3.5,14,8.25,27.38,15.93,39.64a337.09,337.09,0,0,0,33,43.79c3,4.15,6.79,7.57,9.73,11.74,2.48,3.52,4.61,7.19,5,11.6.19,4.94.31,9.87-.81,14.73a11.65,11.65,0,0,0,.54,6.76c-1,3.51-4.45,1.88-6.52,3.13-3.9.89-7.66,2-10.39,5.24-1.3,1.55-2.4,3.2-2.17,5.32.18,1.54.87,3,2.42,3.46,1.92.57,1.85-1.38,2.41-2.42,1-1.84,1.48-4.15,4.24-4.21a2.86,2.86,0,0,1,1.88,2.05c.65,2.53.17,5.38,2.2,7.5,1.2,1.26,2.65,2.24,4.4,1.74,2.06-.58,1.33-2.37,1.17-3.77a9.11,9.11,0,0,1,1.32-6.19c.74-1.14,1.72-2.21,3.22-1.93,1.34.25,1.57,1.56,1.82,2.69.3,1.29.28,2.64.7,3.91a6.09,6.09,0,0,0,6.32,4.61c3.19,0,4.68-2.11,5.48-4.88.32-1.13.71-2.41.27-3.43-2.34-5.32.64-8.33,4.55-11a1.21,1.21,0,0,1,1.32.21l2,2a130.9,130.9,0,0,0-2.84,14.32c-.7,6.4-7,10-13.49,8.32a14,14,0,0,0-8.56.34,11,11,0,0,1-10.83-1.84,6.57,6.57,0,0,0-4.5-1.49c-9.31,0-13.92-8.1-9.4-16.26a16,16,0,0,1,11.77-8.34c1.22-.22,2.75.45,3.56-1.1-1.43-4.22.64-8.17,1.14-12.2a19.06,19.06,0,0,0-4.24-15.34c-10.84-13.05-22.09-25.75-31.9-39.63-7.77-11-15.07-22.24-20.59-35.77-3.75,5.36-7,9.88-9,15.15-1.06,2.84-.07,5.57,1.24,8.15,4.74,9.34,4.38,18.58-.6,27.69-9.62,17.57-21.79,33.39-33.78,49.35-1.14,1.51-2.71,2.43-4.08,3.63-1.19,2-2.36,3.93-3.59,5.87-4.9,7.78-10.83,10.45-19.78,9-1.29-.22-2.53-1-3.87-.33-7.49,3.6-13.35-.58-19.35-4.06C58,601,57.08,598.46,56,596c.59-8.11,3.63-12.25,11.69-13.9,8.43-1.74,14.36-6.35,19.09-13.24a306.08,306.08,0,0,0,20.28-33.15c1.54-3,1.41-4.73-1.76-6.79-24.27-15.76-35.16-38.62-34.78-67.14.36-27.86,7.24-54.24,19-79.39a11.82,11.82,0,0,0,.47-9.86,267.5,267.5,0,0,1-13.57-59.64C76.13,310.46,76.16,308,76.05,305.47Z"/><path class="cls-4" d="M11.74,119.68c2.95,0,7.68,1.86,11.23,6,1.9,2.2,2.59,1.91,3.57-.6,1.65-4.25,3.78-8.1,8.72-9.52s8.12-.35,10.32,4.24c4.32,9,1.72,17.58-2.5,25.68-5.55,10.67-7.2,11-18.33,6.6-8.28-3.28-16.13-7.13-21.48-14.65a15.19,15.19,0,0,1-3.22-7.71C-.45,123.09,2.57,119.76,11.74,119.68Z"/><path class="cls-5" d="M274.17,234.34a31.27,31.27,0,0,1,.91-10.68,15.79,15.79,0,0,1,7-10.47c6-3.8,12.05-1.21,12.88,5.78.4,3.35,1,4.77,4.84,3.86a14.86,14.86,0,0,1,8.87.32c6.93,2.77,8.65,10.63,3.87,16.48-3.77,4.62-8.88,7-14.31,8.6a58.64,58.64,0,0,1-18.71,2.34c-2.65-.09-4.22-1.11-4.32-3.69C275.05,242.57,273.38,238.4,274.17,234.34Z"/><path class="cls-4" d="M293.19,35.85c-1.79.21-2.84-1.05-3.33-3.08-1.92-8-4-16-2.95-24.46C287.45,4,289.19.86,293.54.13s7.68,1.93,8.8,5.78c1.42,4.85,3.58,5,7.88,3.62,8.61-2.75,15.61,1.77,14.88,9a10,10,0,0,1-3.91,6.71C313.25,31.89,303.69,34.44,293.19,35.85Z"/><path class="cls-6" d="M76,271q0,16,0,32A119.36,119.36,0,0,1,76,271Z"/><path class="cls-7" d="M243.17,597.13c.19-8-1.13-16.09.78-24.06q.11,10,.2,20C243.82,594.4,243.49,595.76,243.17,597.13Z"/><ellipse class="cls-8" cx="245.57" cy="566.08" rx="0.33" ry="10.89"/><path class="cls-9" d="M202.2,55.87c.34-2.8.52-5.63,1.67-8.27.32,1,.63,2.08.95,3.12q-.88,2.56-1.75,5.13C202.79,56.36,202.5,56.35,202.2,55.87Z"/><path class="cls-10" d="M244,560.09c-1.49-1.52-.89-3.4-.89-5.17A7.52,7.52,0,0,1,244,560.09Z"/><path class="cls-11" d="M227.35,337.41c4.48,17.94,9.67,35.75,13.19,53.88a167,167,0,0,1,2.32,44.06,2,2,0,0,1-2.13-.87c-3.08-4.89-7.76-7.68-12.83-10-2.3-1.63-4.06-.37-5.79,1.07-6.86,5.06-10.08,12.29-11.65,20.27-2.69,13.69-3.33,27.33,1.92,40.7a31.59,31.59,0,0,0,6.76,10.36c5.75,6,11.58,5.11,15.57-2.25,1.37-2.52,1.65-5.91,5.26-6.68.85,8.79-1.37,17.47-1,26.25-.76,1-.84,2.28-1.33,3.4-3.93,5.93-8.9,8.13-15.79,6.61-8.84-2-15.51-7.38-21.29-14-8.95-10.31-14.93-22.4-20.49-34.69q-10.27-22.74-18.54-46.32c-6.8-19.43-17.46-36.49-30.59-52.23-11.21-13.44-21.83-27.35-28.26-43.86-4.57-11.73-7.71-23.71-5.17-36.51,2.41-12.12,9.15-17.73,21.49-17.75a91.44,91.44,0,0,1,14.88,1.64c13.89,2.25,25.6-8.79,21.84-22.29-.44-1.56-1.09-3.48.51-4.65,1.84-1.34,3.45.15,5,1.11,1.83,1.16,3.35,2.73,5.1,4,.91.67,1.95,1.68,3.11.9s.75-2.14.45-3.23c-2.05-7.31-5.89-13.44-12.48-17.42-7.29-4.41-15.46-6-23.84-6.64-2.25-.18-4.75.45-6.45-1.78-1.6-3.38-5.19-2.88-7.91-3.68-6.32-1.86-12.67-3.45-18-7.6-1.61-1.24-3.74-2.53-3.45-4.45.37-2.4,3-2,5-2.19,1.08-.11,2.62.39,2.91-1.14.23-1.17-.79-2.08-1.64-2.9a33.13,33.13,0,0,1-10.6-23.82c-.12-5.09,1.28-10,2.62-14.93,9.22,7.59,18.6,5.11,27.84.19a64.68,64.68,0,0,0,16-11.71c7-7.12,13.94-14.26,21.22-21.07,2.66-2.48,5.45-5.64,9.93-3.58-2.06,7.62-7.31,13.73-9.93,21.08-.46,5.18-4,8.86-6.4,13.08-.35.53-.75,1-1.13,1.53.31-.39.63-.77.93-1.19,2.85-3.81,4.31-8.65,8.55-11.41,5.07-7.69,8.91-16,13.28-24.11,2-1.68,4.09-.95,6.12-.22,6.25,2.23,10.66,6.61,13.9,12.23a66.56,66.56,0,0,1,7.4,20c1.58,7.64,3.32,15.26,6.24,22.52,3.77,9.37,8.21,15.73,21.25,14.89,1.95-.12,4-.2,5.67,1.28.17,4.49-2.63,8-3.88,12.07-1.89,6.1-4,12.14-6,18.21-1.83,1.63-3.8.67-5.66.2a51.33,51.33,0,0,1-26.87-17,53.47,53.47,0,0,0-19.68-14.75,16.71,16.71,0,0,0-4.21-1.24,5.39,5.39,0,0,0-2.45-.37c-2.14.24-4.69.07-5.81,2.21-1.25,2.4,1,4.05,2.38,5.51,6.15,6.57,12.07,13.24,16.32,21.31,8.11,15.39,9.06,31.84,7.15,48.58-.72,6.32-3.5,12-11.5,12.08-2,0-2.49,1.23-2.2,3,.24,1.48.56,3,.79,4.42,1.27,8,.1,15.18-4.95,22.11-16.05,22-8.74,51.7,15.39,64.32,9.06,4.75,15.85,2.14,19.17-7.53a53.22,53.22,0,0,0,2.56-14.69c.38-7.67,1.32-15.3,5.92-21.84C217.25,334.27,221.92,333.53,227.35,337.41Z"/><path class="cls-12" d="M127.09,230.47c8.53-.05,16.89.8,25,3.83,10.72,4,17,11.81,19.78,22.67.46,1.83,1.22,4.25-.9,5.47-1.85,1.07-3.44-.66-4.84-1.73-3.1-2.41-6.09-5-9.23-7.53-1.21,2,.07,3.31.41,4.61,3.33,12.78-5,24.13-18.19,24.4-4.29.1-8.6-.78-12.9-1.19-3-.28-6-.75-8.94-.73-9.08.09-14.67,4.27-17.25,13-3.61,12.22-1.14,24.05,2.84,35.68,4.86,14.2,13.16,26.45,22.34,38.13,11.09,14.11,23,27.62,30.67,44.12,7,15.1,12,31,18.35,46.34,5.79,14,11.67,27.92,19.75,40.79,5.63,9,12.16,17.09,21.87,22,9.43,4.82,16.15,3.49,21.27-4.18,2.47.23,1.21,1.87,1.15,3-.39,6.14-.71,12.28-1.2,18.42a35.33,35.33,0,0,0,3.12,18.44c.91,1.68-.08,3.63.79,5.31a26.07,26.07,0,0,0,0,8.08c-.89,6.55-.16,13.13-.42,19.69-.08,1.95.39,3.95-.39,5.86-1.36,1.59.49,6.59-5.13,4,2.07,5.06,3,9.83.16,14.45a5.91,5.91,0,0,1-4.52,2.74c-6.15.8-9.4-3.12-10.24-12.8-3.37,3-3.88,6.41-2.1,9.9,1.4,2.73,0,3.09-2,3.49-6.05,1.25-9.7-3-9.11-10.57.22-1.13,1.05-2.58-1.28-2.29a8,8,0,0,0-2.66,6.22c.15,3.75-1.85,3.19-4.05,2.26-3.58-1.51-4.82-5.3-3-9.22,2.53-5.38,7.3-7.4,12.8-8.26,2.32-1.13,5,.52,7.28-1,.07,0,0-.3,0-.42s-.19-.25-.29-.38c-2.08-.53-3.66-1.1-2.7-4,2-5.9,2.1-12.07,1.94-18.23.44-5.16,4.15-8.1,7.68-11.11,2.54-2.17,2.09-3.45-1-4.24a61,61,0,0,0-9.28-1.77A19.66,19.66,0,0,1,201,549c-23.92-26.33-44.52-54.53-51-90.64-1.64,1.62-1.64,1.62-1.05,7.14l1.92,12.66c.22,2.82-1.8,4.58-3.27,6.51-4.35,5.71-9,11.12-15.58,14.47-10.57,5.39-21.8,2.74-28.82-6.84s-8.66-20.75-9.65-32.08a61.58,61.58,0,0,1,1.86-20.79c1.94-7.56,6.19-12.62,14.25-14.26,6.69-1.36,8.18-4.15,5.9-10.76-2.92-8.53-7.25-16.45-11.7-24.25a176.5,176.5,0,0,1-14.69-34.74c-6.11-17.1-8.06-35-10.09-52.88-1.82-2.48-.36-5.16-.35-7.71,0-7.41-.57-14.85.32-22.25,1.86-18.78,5-37.28,12.11-54.91.84-2.09,1.29-4.4,3.09-6l-.1-.09c-1.3,4.75.87,8,4.61,10.55A45,45,0,0,0,120,229.73c1.93.9,4.09-.17,6,.71Z"/><path class="cls-12" d="M236.86,203.25c-1.65.15-3.3.35-5,.46-11.73.77-18-3-22.73-13.7-3.47-7.94-5.17-16.42-7-24.82a71.36,71.36,0,0,0-6.51-18.72c-4.2-7.73-10.21-13-19.33-13.9A358.9,358.9,0,0,0,192.78,91c.93-3,2.69-2.89,5-2.39,1.2-.86.2-2,.37-3,.07-2,1.43-3.55,1.87-5.43a7.48,7.48,0,0,1,.57-1.89,6.52,6.52,0,0,1,4.12-3.24,5,5,0,0,0,2.29-.82c.94-.53,1.89-.93,2.89-.15,3,2.18,5.92,4.69,10,4.8,1.35.79,2.94.07,4.31.68a2.3,2.3,0,0,1,.39,1.37c-2.75,3.74-2.06,7.4.18,11.08,1.28,2.13,1.73,4.34-.06,6.47a6.61,6.61,0,0,1-7.17,2.28c-5.56-1.5-8.82-5-9.06-11,.07,6.37,3.35,10.77,9.18,11.32a10.18,10.18,0,0,1,8.08,4.86c3.82,5.44,8.37,6.75,14.23,4.41-5.11,1.42-9.64.69-13.08-3.57-1.64-2-2.53-4.37-1.42-7s3.39-3.49,6.06-3.58c1.16,0,2.32,0,3.49,0,1.85,0,3.93,0,4.69-2,.86-2.35-1.13-3.59-2.64-4.83a51.45,51.45,0,0,0-5.4-3.57c-1.68-1.06-3.45-2-4.19-4.09a2.48,2.48,0,0,1,.47-2.13c1.43-.7,3.09,0,4.52-.71,4-1,8.08-2.12,11.34,1.85A7.74,7.74,0,0,1,246,85.57c.35,8.78,4,15.91,11.13,21.14A28.26,28.26,0,0,1,259,110a6,6,0,0,1,.34,1.33,4.87,4.87,0,0,1-.78,3.4c-3.53,1.38,1.66,1.93.31,3.11a11.44,11.44,0,0,1-1.62,5.58c-2.41,9.58,1.06,17.94,5.43,26.1.63,1.16,1.57,2.15,2.11,3.37a6.48,6.48,0,0,1,.42,1.29,5.16,5.16,0,0,1-.24,2.72s-.33.17.08.27c.63.15-.21,0,.35-.37,5.92,1.11,9.95,4.72,12.91,9.73-3.67,5.38-9.11,5.51-14.71,4.77-12.83-1.72-24.67-6.35-35.94-12.59-1.36-.75-2.45-2.39-5-1.54,6.48,6.52,14.14,10.37,22.27,13.59,3,1.17,7.74.7,8.48,3.58.54,2.08-3.06,5.12-4.59,7.86-3.07,5.49-6,11.06-9,16.6C239,200.4,238.56,202.24,236.86,203.25Z"/><path class="cls-12" d="M171,133.59c-4.55.18-7.59,3.14-10.5,6-5.75,5.73-11.17,11.79-16.94,17.48-8,7.86-16.76,14.56-27.68,17.92-5,1.55-10.11,2-15-.27-2.18-1-4.74-1.89-4.86-5,5.57-15.83,14.59-29.77,24.26-43.31C136.91,103.05,154.29,80.14,170,56c2.45-3.76,6.5-.75,8.53-3.65-7.76-2.61-11.43-6.47-10.51-11.08.85-4.21,4.85-5.69,13.76-5.07-.83-2.85-4.34-2.77-5.53-5.41-2.34-5.2-1.4-10.47,2.76-12.76,3.94-2.17,7.71-.64,11.13,4.54.46.69.83,1.44,1.24,2.16,2.34-.43.88-2,.88-3.06a9.63,9.63,0,0,0-5.71-7.11c-3-1.28-2.06-2.85-.8-4.58,3.73-5.09,12.12-3.86,15.35,2.28,2.52,4.79,2.38,10,1.8,15.12A313.56,313.56,0,0,1,173.27,129.8C172.63,131.12,171.75,132.33,171,133.59Z"/><path class="cls-13" d="M227.35,337.41c-10.1-1.6-13.6,1.09-16.49,11.91-2.25,8.4-1.14,17.23-3.69,25.58a32.25,32.25,0,0,1-2.81,6.89c-3.44,5.89-8.8,8-15.3,5.41-28.34-11.14-37.09-44.37-21.57-66.39,6.47-9.18,7.91-17.87,5.12-28-1.11-4-1-5.93,4.22-4.49,4.56,1.27,7-2.24,8.41-6,3.55-9.7,2.28-19.7,1.29-29.59-1.6-15.87-9.08-28.95-20-40.25a29.1,29.1,0,0,1-3.44-3.59c-1.52-2.23-5-4.24-3.48-7.09s5.14-3.27,8.42-3.08a5.33,5.33,0,0,1,3.32.83c1,1.33,2.75,0,3.84,1.09,7.81,2.24,14,7.24,18.94,13.16,8.79,10.57,19.55,17.13,32.91,19.76l-4.95,31c-5.39.52-7.84-4.32-12.14-6.63-1.44,2-1.23,4.35-1.14,6.52.64,15.36-3.45,29.55-10.06,43.24-4.63,9.58-9.08,19.26-11.19,29.81a32.21,32.21,0,0,0-.73,8.41c.12,1.78-.27,4.31,1.63,4.86,2.17.62,2.74-2,3.53-3.51,2.39-4.56,4.48-9.28,6.59-14,2.39-5.34,5.08-10.5,9-14.87,4.44-4.94,8.87-5.51,14.61-2.14,1,.89,1.07,2.27,1.88,3.25Q225.69,328.45,227.35,337.41Z"/><path class="cls-14" d="M362.09,327l0,.2a25.67,25.67,0,0,0-4.85,5.5c-4.75,5.23-9.6,10.37-14.71,15.26-5.28,5.48-11.32,10.13-16.93,15.25-5.63,4.47-11,9.3-16.79,13.55-1.84,1.34-3.59,2.93-6.14,2.67a3.2,3.2,0,0,1-2.63-2.37c-.26-2.59-1.33-3.15-3.52-1.55a99.5,99.5,0,0,0-10.19,8.81c-12.14,11.66-23.19,24.3-34,37.17-1.27,1.51-2.17,4-5,2.92-.75-9.07-1.42-18.15-2.31-27.21-.27-2.74,1.3-4.31,2.8-6.06,17.5-20.33,38.29-36.64,61.52-49.95a3.53,3.53,0,0,1,2.91.16c6.68,3,11.51.29,15.77-4.73,2.08-2.46,5-3.82,7.84-5.21,8.11-3.95,15-9,18.46-17.95a62.88,62.88,0,0,1,8-13.78c2.22-3.07,1.37-6.72,1.9-10.11a121.4,121.4,0,0,0,9.3-35.93c4.27,4.65,5.58,9.19,6.33,14,.42,6.6,0,13.2,0,19.8-1.82,12.41-7.05,23.46-13.59,34-1.34.34-1.83,1.51-2.47,2.52C363.23,325,361.86,325.57,362.09,327Z"/><path class="cls-12" d="M105,116c2.31-6.75,4.83-13.44,6.86-20.28a120.47,120.47,0,0,0,3.73-20.55c.8-6.82-1.9-13.64-.17-20.85-4.61-.7-9.68-2.12-12.67-7.1a5.38,5.38,0,0,1-.22-6.11c3.13,4.42,7.2,6.16,13.31,4.68-9.06-3.26-12.19-7.08-10.59-12.11s7.89-7.36,15.54-5.83c-3.39,3.91-5.65,8.18-2.11,12.83,2.49,3.28,6.11,3.52,9.91,2.11-.15-1.13-.93-.89-1.42-1-2.92-.5-5.59-1.39-6.35-4.69a4.84,4.84,0,0,1,1.88-5.33,8,8,0,0,1,9-.45c5.24,3.06,8.56,7.78,10.57,13.44,4,11.34,3,22.89,1.55,34.51a39.22,39.22,0,0,1-8.2,19.86c-8.26,10.62-15.83,21.78-23.68,32.71-4.44-.95-8-6.23-7.69-11.53A15.38,15.38,0,0,1,105,116Z"/><path class="cls-13" d="M240,488c-2.67,3.38-3.05,8-6.1,11.19-4.33,4.57-8.06,5.22-13.12,1.44-8.58-6.41-12.12-15.8-13.32-25.83C206,462.35,206.35,449.88,211,438c2.27-5.81,5.13-11.2,11.15-14.06,1.77-1.6,3.7-1.4,5.69-.52,7,1.49,11.63,5.94,15,12C243.16,453,241.73,470.47,240,488Z"/><path class="cls-15" d="M221.89,317.67c-6.14-3.65-10.53-2.73-14.83,3.45-5.07,7.27-8,15.66-11.95,23.52a70.83,70.83,0,0,1-4.36,7.81c-2,3-3.75,2.28-4.72-.86-2.45-7.91-.64-15.62,2.11-22.93,4-10.72,8.77-21.18,13.29-31.71a75.6,75.6,0,0,0,5.69-27.67c.08-2.33.09-4.66.19-7,.13-2.64-.63-6.54,1.19-7.53,2.26-1.22,3.28,2.89,5.32,4.16,2.82,1.74,5.5,3.72,8.23,5.59,0,1.68,0,3.35,0,5,.12,8.31.14,16.62,0,24.93q.56,9.36,1.1,18.71C223.12,314.78,225,317,221.89,317.67Z"/><path class="cls-14" d="M268.28,110.61c5.49.23,11,.8,16.44-.24,7-1.34,8.76-5.33,4.36-11a96.83,96.83,0,0,0-30.87-26.31c2.39-3.58,6.24-5,9.88-6.79,10.14,5.28,18.32,12.65,23.75,22.77,1.44,2.68,3.08,3.26,6,2.79,5.73-.93,11.46-2.18,17.33-1.92A81.21,81.21,0,0,0,332,90c5.34,1,6.16,2.21,3.66,6.65-3.4,6-7.53,11.54-13.51,15.37-4.38,4.14-10,4.7-15.58,5.39-1.15.14-2.31.12-3.47.17-10.61.42-10.64.45-12.54,10.83a5.86,5.86,0,0,1-.69,1.84c-2,1.89-3.23.15-4.56-1-2.13-3.28-5.07-5.81-8-8.38a30.93,30.93,0,0,0-4.47-3c-2.42-2.53-7.1-2.34-8-6.65C265.82,109.84,267.05,110.24,268.28,110.61Z"/><path class="cls-14" d="M105,116c.34,6.14,1.62,11.87,6.9,15.87C104.91,142.65,98,153.45,93.68,165.6,89.59,177,88,188.52,93.44,200a3.37,3.37,0,0,1,.17,3.31c-5.68,10.58-9.52,21.88-12.84,34.43A55.13,55.13,0,0,1,75,215.83c-1.12-18.71,4-36.22,10.38-53.45C91.22,146.64,98.27,131.4,105,116Z"/><path class="cls-16" d="M303.13,378.41c8-4.34,14.35-11,21.81-16.09,1.13-.6,2-.7,2.07,1-9.59,8.48-19.33,16.78-28.72,25.46-21,19.36-38.57,41.25-50.24,67.52-1.48.08-1.5-1-1.47-2,.12-3.76-.39-7.54.31-11.29q.18-9.3.35-18.6,8.87-10,17.73-20c8.83-9.92,17.94-19.56,28.08-28.18a39.16,39.16,0,0,1,4-2.95c1.22-.79,2.66-2,4.06-1,1.66,1.16-.21,2.72-.09,4.12C300.14,378.68,300.89,379.31,303.13,378.41Z"/><path class="cls-17" d="M289,131c.06-.82.14-1.64.17-2.46.41-11.95.84-12.51,12.7-12.75A64.33,64.33,0,0,0,322.13,112c-5,7-12,11.87-19.31,16-4.58,2.58-5.52,5.83-5.79,10.3-.38,6.45-1.22,12.87-4.16,18.75-2.67,5.35-4.91,5.45-8.53.66-.85-1.14-1.29-2.81-3.12-3-2.46-1.93-1.87-4.67-1.92-7.24.14-1.07.35-2.13.53-3.19,1.49-3.62,3.05-7.19,7-8.85.68-.09,1.4.31,2.06-.13.62-1-.57-1.59-.51-2.45A2,2,0,0,1,289,131Z"/><path class="cls-13" d="M280.91,147.08c.11,2.54.21,5.09.31,7.62-.3,4.12-.07,8.36-2.92,11.84-4.27-3.12-8-7-13.06-9-1.11-.78-.53-2-.69-3-.81-2.79-.76-5.75-1.63-8.53a67.51,67.51,0,0,0-1.38-7.46,52.53,52.53,0,0,0-3.45-10.12,22.34,22.34,0,0,1-2.09-5.78l2.15-5a1.7,1.7,0,0,1,1.31-1.35,2.34,2.34,0,0,1,1.25.4,46.78,46.78,0,0,0,6,5.9,8.83,8.83,0,0,1,1.41,1.39c1.51,2.16,3.68,3.76,5.1,6a18.13,18.13,0,0,0,3.3,4.05,7.13,7.13,0,0,1,1.37,2.37A46,46,0,0,1,280.91,147.08Z"/><path class="cls-18" d="M264,81a97.87,97.87,0,0,1,21.53,19.74c3.34,4.18,2.71,5.63-2.56,6.15-8.3.82-16.58,1.12-24-3.85-2.56-3-4.85-6.09-5.79-10.1C251,83.38,254.58,79.33,264,81Z"/><path class="cls-19" d="M363.06,300.49c-3.26,6.12-6.54,12.24-9.78,18.38-3.61,6.83-9.93,10.43-16.45,13.79-2.48,1.28-5.19,2.11-7.26,4.18-9.06,9.09-9.17,9.08-20.32,4.35,20-11.93,38.73-25.37,51.24-45.71.69-1.11,1.13-2.44,2.58-2.87C366,295.24,363.9,297.86,363.06,300.49Z"/><path class="cls-20" d="M220.08,75.74c-1.5-1.28-4-.74-5.09-2.73-1.23-2.49-3.07-4.6-4.11-7.23-3.17-8-1.2-11.09,7.17-10.87a94.48,94.48,0,0,1,18.71,8.71c2.08,1.24,4.53,2.7,4.34,5.55-.2,3.1-3.07,4-5.41,5.15-1.18.58-2.42,1-3.64,1.5A27.78,27.78,0,0,1,220.08,75.74Z"/><path class="cls-17" d="M231,40.78c3.05-5.35,6.77-10.14,12.1-13.42,3-1.83,4.84-1.43,6.27,2.4,3.07,8.28,1.19,16.72,1.65,25.07-2.66,1.07-3.07-.92-3.29-2.64a18.55,18.55,0,0,1,.16-6.73c-.62,0-.53.64-.81.93-.9,2.27-.4,4.62-.59,6.92-.18,2-.38,4.09-3.17,4.15-3-1-3.57-3.48-3.87-6.15-.78-6.9-.78-6.9-7.38-7.12C230.32,43.49,228.9,42.69,231,40.78Z"/><path class="cls-21" d="M232.39,43c.82-.09,1.66-.12,2.47-.29,5.69-1.19,6.32-.7,6.2,5.27-.06,3.17-.43,6.37,2.18,8.87.74.75,1.94,1.35,2.67,1.07,3.12-1.19,4.58.83,6.16,2.77l3,1c-2.07,3.2-5.4,3.64-8.77,4-7-4.39-13.58-9.33-21.42-12.2-1.5-.55-.88-1.91-.23-2.94,1.42-2.24,2.87-4.45,4.31-6.67C229.93,42.87,231.35,43.68,232.39,43Z"/><path class="cls-22" d="M246.3,65.67c2.37-2.54,5.82-2.72,8.77-4,4.7.51,8.8,2.73,13,4.59-2.76,3-5.74,5.76-9.88,6.8C253.52,71.77,251,67,246.3,65.67Z"/><path class="cls-23" d="M264,81c-.77.81-1.77.72-2.76.77-6.06.31-7.84,2.82-6.83,8.88.75,4.46,3.12,8.24,4.59,12.39-7.63-4.75-9.74-12.15-9.33-20.44.31-6.23,4-8,9.44-5C260.87,78.6,262.41,79.86,264,81Z"/><path class="cls-24" d="M218.05,54.91c-7.78,2.52-8.64,4.93-5.05,13,.74,1.65,2.84,2.86,2,5.14-5-3.91-7.17-9.36-8-15.35-.65-5,1.24-6.37,6-4.8C214.74,53.42,216.38,54.22,218.05,54.91Z"/><path class="cls-25" d="M252.07,60.67c-1.67-.09-2.36-3.2-5-1-1.57,1.27-3.13-1-3.79-2.8,3.11-1.24,1.33-4,1.82-6s-1.28-4.78,1.87-6c1.13,3.26-.12,6.37-.25,9.56.73-4.47.48-9.07,1.34-13.52,2,3,.62,6.37,1,9.55.22,1.67-.64,3.79,2,4.39C251.32,56.79,250.66,58.92,252.07,60.67Z"/><path class="cls-26" d="M327,363.29l-2.07-1,16.73-15.14c1.2-.23,1.72.24,1.47,1.46A121.71,121.71,0,0,1,327,363.29Z"/><path class="cls-27" d="M205.2,75.82l-4.08,3.07c-1.44,1-2.33.2-3.11-1-.89-4.85,0-6.78,3.45-7.31,2.78-.19,3.91,1.44,4.31,3.89A2.63,2.63,0,0,1,205.2,75.82Z"/><path class="cls-28" d="M205.06,74.79c-.59-1.92-2.18-3-3.6-4.16-.54-2.48,1.17-3.91,2.95-4.37,2.14-.56,2,2,2.86,3.24a44.91,44.91,0,0,1,2.59,4.6l-2.75.81A1.45,1.45,0,0,1,205.06,74.79Z"/><path class="cls-29" d="M343.14,348.64l-1.47-1.46,15.22-15.33a1.33,1.33,0,0,1,.23,1.74A90.64,90.64,0,0,1,343.14,348.64Z"/><path class="cls-30" d="M245.87,69.71c1.9.94,4.57,1.54,4.28,3.23s-2.21,3.64-3.91,4.51c-.88.45-3.65-1.23-3.46-2.66A7.93,7.93,0,0,1,245.87,69.71Z"/><path class="cls-6" d="M79,272.53l0,30c-1.63.36.11,2.89-1.94,3,1.31-10,.82-20.12,1-30.19A10.11,10.11,0,0,1,79,272.53Z"/><path class="cls-31" d="M222.09,294.47a107.15,107.15,0,0,1,0-24.93A67,67,0,0,1,222.09,294.47Z"/><path class="cls-32" d="M163,156.68c-2,4.45-5.31,8-7.94,12-.92.24-1.32-.07-1.09-1,2.19-4.41,4.2-8.92,7.08-13A1.94,1.94,0,0,0,163,156.68Z"/><path class="cls-33" d="M201,80.78c0,1.94-1.24,3.33-2.1,4.89-1.06,1.66-3,0-4.21,1.16.2-3-.11-6.19,3.29-7.83A6.25,6.25,0,0,1,201,80.78Z"/><path class="cls-34" d="M379.75,287.42a56.52,56.52,0,0,1,0-19.8A44.7,44.7,0,0,1,379.75,287.42Z"/><path class="cls-10" d="M240.15,595.05c.26-8.52-.7-17.07.81-25.55q.06,12.76.11,25.54h-.92Z"/><path class="cls-35" d="M246.89,443c1.27,4.34-1.11,9,1.16,13.26-.4,1.18-.79,2.37-1.19,3.55l-1.1-.12Q246.33,451.35,246.89,443Z"/><path class="cls-36" d="M363.06,300.49c-.23-2.63,1.59-5.25,0-7.88.35-1,.7-2,1.06-3.05C365,293.32,366.77,297.17,363.06,300.49Z"/><path class="cls-37" d="M332,90a34.37,34.37,0,0,1-16.86,0A65.62,65.62,0,0,1,332,90Z"/><path class="cls-38" d="M94.19,211.62c-.6-1.66.73-2.75,1.28-4.05.25-.61.53-1.82,1.63-1.22a4.29,4.29,0,0,1,1.57,1.82c.55,1.13-.51,1.27-1.22,1.62-1.13.56-2.24,1.16-3.36,1.74Z"/><path class="cls-39" d="M202.2,55.87a8.42,8.42,0,0,0,.87,0c-.19,2.17,1.81,4.38-.09,6.49-.42.47-1.47.77-1.67.17C200.54,60.21,201.83,58.09,202.2,55.87Z"/><path class="cls-40" d="M220.08,75.74a49.93,49.93,0,0,0,12,.08A14.61,14.61,0,0,1,220.08,75.74Z"/><path class="cls-40" d="M232.4,78.94c-1.27,1-2.86.71-4.3,1A3.11,3.11,0,0,1,224,80c-1.37-.45-3,0-4.18-1.1Z"/><path class="cls-41" d="M357.12,333.59c-.08-.58-.15-1.16-.23-1.74,1.12-2.21,2.39-4.25,5.15-4.65A20.46,20.46,0,0,1,357.12,333.59Z"/><path class="cls-42" d="M268.28,110.61c-1.07.28-2.32,0-3.17,1-2.31,1.3-3.84,0-5.35-1.53a1.8,1.8,0,0,1,.27-2.12Z"/><path class="cls-43" d="M260,107.93c0,.6,0,1.2,0,1.79a1.58,1.58,0,0,1-2.09.18c-1.7-.68-1.93-1.76-.87-3.19Z"/><path class="cls-44" d="M194.73,86.83c1.05-1.66,2.75-1,4.21-1.16.52,1.36,1.89,3-1.2,3C197.27,87.12,195.82,87.28,194.73,86.83Z"/><path class="cls-45" d="M221.89,317.67c1.5-1.19.82-3,1.3-4.49a12.24,12.24,0,0,1,.85,6.3Z"/><path class="cls-46" d="M363.12,323.53c.82-1,.9-3,3-2.12l-2.08,3.08A1.63,1.63,0,0,1,363.12,323.53Z"/><path class="cls-11" d="M126,230.44c-2.06.21-4.11.31-6-.71C122.05,229.5,124.13,229.15,126,230.44Z"/><path class="cls-47" d="M238.23,519.25c-.68-.9.36-2.46-1.15-3,.07-1.2.89-1.67,1.89-2C239,515.94,239.17,517.67,238.23,519.25Z"/><path class="cls-48" d="M232.39,43a4.4,4.4,0,0,1-3.43.88c.11-1.4.25-2.78,2-3.07C230.45,42.16,230.82,43,232.39,43Z"/><path class="cls-49" d="M192.21,21.7c1,1.05.85,2.41.95,3.69,0,.64-.12,1.45-1,1-.45-.23-.59-1.09-.86-1.67C191.62,23.74,191.91,22.72,192.21,21.7Z"/><path class="cls-50" d="M201,80.78c-1.14-.36-2.41-.5-3-1.78,0-.35,0-.71,0-1.06l3.11,1C201.09,79.52,201.07,80.15,201,80.78Z"/><path class="cls-51" d="M363.12,323.53l1,1c-.66.83-1.33,1.66-2,2.5C360.8,325.35,362.68,324.65,363.12,323.53Z"/><path class="cls-10" d="M240.94,561.42c-.26-1.77-.53-3.54-.79-5.31C241.61,557.7,241,559.6,240.94,561.42Z"/><path class="cls-11" d="M89.11,355.37c7.52,18.31,17.28,35.52,26.08,53.2a33.75,33.75,0,0,1,2.41,6.54c2,7.57.16,10.57-7.47,11.57-7.08.93-11.23,5.05-12.82,11.55-4,16.32-3.18,32.49,4,47.79,7.51,16,22.6,18.83,36.13,7.45,5.28-4.44,9-10.18,13.38-15.36,2.37,2,.48,3.61-.5,5.16-2.57,4.05-5.25,8.05-8,12-4.27,6.21-6,12.51-1.33,19.35a27.37,27.37,0,0,1,2,4.51c-4.47,10.6-18.07,17.19-30.8,12.2-.34-3.17-3.09-4.18-5.25-5.58-16.65-10.86-27.42-25.85-31.21-45.37-1.79-9.25-1.6-18.64-1.06-28.17.85-15.06,4.15-29.48,8.46-43.75,2.62-8.67,5.62-17.28,10.38-25.8l5.74,10.78.88-.33c-2-6.2-4-12.39-5.89-18.61S89.66,362.06,89.11,355.37Z"/><path class="cls-12" d="M112.22,531.33a8.39,8.39,0,0,1,2.41-.28c11.2,1.89,20.18-1.56,26.8-10.91.33-.48,1-.68,1.59-1,2.09,7.92-1,14.71-4.84,21.24-6.73,11.3-14.33,22-22.11,32.62-5.5,7.5-11.33,14.74-15.83,23-3.61,6.63-9.18,8.91-15.38,7.33-7-1.79-8.43-5.75-4.22-11.5-6.14.44-7.54,3.91-4.62,12-3.24.66-6.31.89-8.64-1.94-3.27-3.95.17-7,2.07-10.92-4.47,1.21-6.31,4.1-7.6,8.19-2.7-3.82-2.31-6.79,0-9.65a9.26,9.26,0,0,1,5.88-3.51c11.37-1.74,18.47-9,24.41-18.11,6.17-9.48,12.42-18.89,17.52-29C110.83,536.44,112.16,534.09,112.22,531.33Z"/><path class="cls-52" d="M201,549c7.06,3.15,14.77,3.45,22.17,5.09,1.81.4,4,.66,4.52,2.54s-1.56,2.71-2.85,3.65c-3.94,2.88-6.84,6.66-9.53,10.64-1.3-6.59-5.79-11.23-9.88-16.11C203.83,552.9,201.9,551.3,201,549Z"/><path class="cls-53" d="M148.89,465.45c-1.45-3.35-.69-6.84-.85-11,1.37,1.41,2.29,2.27,1.9,3.87C147.94,460.45,149.78,463.15,148.89,465.45Z"/><path class="cls-54" d="M216,593.09c1.34-.08,2.42.4,3.67,1.84H209.05C211,593,214.1,595.21,216,593.09Z"/><path class="cls-55" d="M205.94,603.93c.42-.88,1.32-2.22,1.94-1.58,1.11,1.16.14,2.65-.66,3.87C206.85,605.42,207.09,604.29,205.94,603.93Z"/><path class="cls-56" d="M205.85,459.6v13.09l-.43,0V459.78Z"/><path class="cls-57" d="M154,167.63l1.09,1-3,4.33C151.81,170.8,152,168.84,154,167.63Z"/><path class="cls-58" d="M227.86,423.38l-5.69.52c1.39-2.69,3.7-1.43,5.74-1.33.06,0,.17.26.16.39S227.93,423.24,227.86,423.38Z"/><path class="cls-59" d="M175.15,200.61c-1.41,0-2.94.35-4.19-.09-1.72-.6,0-.72.34-1C172.69,199.51,174.06,199.55,175.15,200.61Z"/><path class="cls-60" d="M228.09,81.66c3.76,2.45,7.55,4.86,11.27,7.37,1.9,1.28,3.22,3,2.54,5.47s-2.62,3.36-5,3.46c-2,.1-4,0-6,0-4.08-.16-6,2.68-4.25,6.38a9.76,9.76,0,0,0,12.72,4.38c1.32-.66,2.75-2.91,4.13-.64s-1.07,3.17-2.5,4c-5.16,3.16-12.44,1.23-16.5-4.81-1.93-2.89-3.87-4.25-7.43-4.54-6.72-.56-12-7.67-10.74-13.75.29-1.38.41-3.33,2.47-3.16,2.41.21,1.38,2,1.29,3.44a9.48,9.48,0,0,0,8.12,10.24c2.24.38,4.12.14,5.66-2s.15-3.26-.74-4.79c-3.59-6.19-3.39-8.85.8-12A3,3,0,0,1,228.09,81.66Z"/><path class="cls-61" d="M267.1,124.83,266,123.67c-1.47-2.66-4.31-4.17-5.78-6.84l-.64-.07c-1.28,0-1.67-.7-1.42-1.87,0-1.42,0-2.83,0-4.25,6-.25,10,3.9,14.8,6.4a30.29,30.29,0,0,1,4.52,3.25,43.6,43.6,0,0,1,8,7.63c.71,2.56,4.65,4,2.56,7.53-3,2.28-5,5.37-7.06,8.45-2.48-1.94-2.94-4.92-3.92-7.62l-1-1.61a32.8,32.8,0,0,1-3.52-4.75A22.53,22.53,0,0,0,267.1,124.83Z"/><path class="cls-62" d="M256,122.69c2,1.12,2.73,3,3.08,5.14.75,4,2.5,7.65,3.46,11.56.42,2.5.88,5,1.42,7.49-.15,2.32,1.54,4.65,0,7-6.53-8.94-10.49-18.61-8.6-29.95A3.92,3.92,0,0,1,256,122.69Z"/><path class="cls-63" d="M273,117.8c-4.88-2.53-9.21-6.18-14.84-7.16a1.1,1.1,0,0,1-.17-.75l2.09-.17,5.06,1.86,8.89,5.24C274.19,117.71,274.07,118.27,273,117.8Z"/><path class="cls-64" d="M263.92,153.84l-.75-7.16c.35-.45.37-1.17,1.1-1.28,1.29,3.07.85,6.29.85,9.48-.4.4-.71.31-.94-.18A2.86,2.86,0,0,1,263.92,153.84Z"/><path class="cls-65" d="M264.18,154.7a2.56,2.56,0,0,1,.94.17c0,.9.07,1.79.11,2.68-.17.57-.24,2-1,.39C263.84,157,264.18,155.79,264.18,154.7Z"/><path class="cls-66" d="M258.11,114.89c.47.63.94,1.25,1.42,1.87l-1.38.93c-.62-.9-1.24-1.8-1.87-2.69Z"/><path class="cls-67" d="M205.06,74.79l2.05.12c.25.75.49,1.5,1,3.13l-2.94-2.22C205.15,75.48,205.1,75.13,205.06,74.79Z"/><path class="cls-68" d="M228.09,81.66l-4.08-1a1.5,1.5,0,0,1,0-.7l4.1-.05C228.1,80.53,228.09,81.1,228.09,81.66Z"/><path class="cls-69" d="M303.13,378.41c-1,1.15-2.07,2-3.78,1.63-.55-1.78.68-2.67,1.69-3.66A2,2,0,0,0,303.13,378.41Z"/><path class="cls-70" d="M284.78,127.88c-2.55-2.45-5.46-4.56-7.48-7.54l.25-.27c3.7,1.48,6.11,4.32,8.06,7.64C285.46,128.43,285.18,128.49,284.78,127.88Z"/><path class="cls-71" d="M314,95.6,303.2,96.81c1-2.92,3.38-1.67,4.75-2.58a5.37,5.37,0,0,1,1.53-.38C311.08,94.17,313.33,92.83,314,95.6Z"/><path class="cls-72" d="M314,95.6c-1.59-1.31-3.6-.58-5.35-1.09C312,92.35,315.49,93,319,94,317.74,95.88,315.85,95.72,314,95.6Z"/><path class="cls-73" d="M284.78,127.88a4,4,0,0,1,.83-.17L289,131c0,.56.07,1.13.11,1.69a2.48,2.48,0,0,1-.09,3c-.53.65-.81.35-1-.27C288.47,132.27,285.66,130.49,284.78,127.88Z"/><path class="cls-74" d="M319,94c-3.48-.32-7-.67-10.39.47l-.67-.28C311.6,91.76,315.29,92.27,319,94Z"/><path class="cls-75" d="M277.55,120.07l-.25.28c-1.93,0-3-1.52-4.33-2.55l1-1C275.34,117.74,277.21,118.07,277.55,120.07Z"/><path class="cls-76" d="M299.86,97.82l-1.3-.77c.26-.3.59-.9.76-.86a2.64,2.64,0,0,1,1.53.83C301.26,97.68,300.49,97.59,299.86,97.82Z"/><path class="cls-77" d="M277.05,136.28c2.16,2.1,2.5,5.14,3.92,7.62l-.06,3.18C279.52,143.52,276.59,140.5,277.05,136.28Z"/><path class="cls-78" d="M289,135.72l.09-3a27.82,27.82,0,0,1,1.55,2.39c.27.51.59,1.34-.13,1.58C290.18,136.81,289.54,136.07,289,135.72Z"/><path class="cls-79" d="M261.84,139c-1-3.7-3.6-7-2.76-11.19,2.36,2.9,2.68,6.58,3.82,10C262.58,138.22,262.57,138.93,261.84,139Z"/><path class="cls-80" d="M261.84,139l1.06-1.24q.69,3.81,1.36,7.62l-1.09,1.28C262.73,144.12,262.28,141.57,261.84,139Z"/><path class="cls-81" d="M260.17,116.83c2,2.24,5.78,2.94,5.78,6.84C264,121.44,260.47,120.48,260.17,116.83Z"/><path class="cls-82" d="M267.1,124.83c3.55-.06,4.39,2.88,5.78,5.2.12.5-.07.69-.57.6Z"/><path class="cls-83" d="M272.31,130.63a1.38,1.38,0,0,0,.57-.6,6.52,6.52,0,0,1,3.14,4.64C273.7,134.31,273,132.47,272.31,130.63Z"/><path class="cls-84" d="M248,40.89c-.25,4.87,1,9.87-1.32,15.07-1.59-4.06.14-7.57.23-11.11C247.4,43.56,244.88,41.45,248,40.89Z"/><path class="cls-85" d="M225.2,84.32l13.22,8.49C231.6,96.81,226.87,94.13,225.2,84.32Z"/></g></g></svg>