<svg xmlns="http://www.w3.org/2000/svg" viewBox="0 0 638.59 483.45"><defs><style>.cls-1{fill:#ffeaf6;}.cls-2{fill:#f9f9f9;}.cls-3{fill:#e13e5b;}.cls-4{fill:#b71a3c;}.cls-5{fill:#f2f2f2;}.cls-6{fill:#ddd;}.cls-7{fill:none;}.cls-8{opacity:0.37;}.cls-9{fill:#f4645d;}</style></defs><g id="Layer_2" data-name="Layer 2"><g id="Layer_1-2" data-name="Layer 1"><path class="cls-1" d="M581.65,405.94c-8.55,22.92-18.37,46.51-32.55,66.17H13.49c-10.59-22.3-12-48.75,1.58-68.88,22.75-33.73,75.61-36.89,96.86-71.58,13.45-22,10-49.74,9.1-75.48s3.58-55.58,25.57-69c26.13-15.93,62.12.44,89.68-12.84,17.39-8.38,27.34-26.54,38.78-42.1C315.76,76.86,388.54,47,456.42,57.75s127.8,61.79,149.31,127.07C629.39,256.65,608.11,335.09,581.65,405.94Z"/><path class="cls-2" d="M534.09,483.45H95.76a5.5,5.5,0,0,1,0-11H534.09a5.5,5.5,0,0,1,0,11Z"/><path class="cls-2" d="M63.76,483.42H5.5a5.5,5.5,0,0,1,0-11H63.76a5.5,5.5,0,1,1,0,11Z"/><path class="cls-2" d="M599.09,483.45h-44a5.5,5.5,0,0,1,0-11h44a5.5,5.5,0,0,1,0,11Z"/><path class="cls-2" d="M633.09,483.45h-14a5.5,5.5,0,0,1,0-11h14a5.5,5.5,0,0,1,0,11Z"/><path class="cls-3" d="M408.37,233.82c-4.87,12.76-50.79,9.11-73.41,6.49-2.13-.25-4.06-.48-5.71-.69-4.22-.55-6.76-.94-6.76-.94v-23.5s1.34-1.17,3.68-3.13c1-.87,2.25-1.89,3.65-3,17.13-14.12,59-46.68,68-35.14,4.48,5.76,8.07,13.67,10.39,22.18a84.26,84.26,0,0,1,2.62,14.87C411.54,219.27,410.83,227.37,408.37,233.82Z"/><path class="cls-4" d="M339.6,227.16c0,4.86-1.83,8.06-5.13,10.42-2.13-.26-3.57,2.25-5.22,2a25.81,25.81,0,0,1-18.66,7.5c-13.2,0-23.89-8.93-23.89-20s10.69-20,23.89-20a26.64,26.64,0,0,1,15.58,4.85c1-.87.76,0,2.15-1.14C334.32,215.35,339.6,219.94,339.6,227.16Z"/><rect class="cls-5" x="182.87" y="267.76" width="255.42" height="204.67" rx="15.4"/><rect class="cls-6" x="182.87" y="309.89" width="255.42" height="15.59"/><path class="cls-4" d="M392.19,177.19c1.18,1.75-9.09,10.7-22.94,20s-26,15.38-27.2,13.62,9.09-10.7,22.94-20S391,175.43,392.19,177.19Z"/><path class="cls-3" d="M212.8,233.82c4.87,12.76,50.79,9.11,73.41,6.49,2.13-.25,4.06-.48,5.71-.69,4.22-.55,6.76-.94,6.76-.94v-23.5s-1.34-1.17-3.68-3.13c-1-.87-2.25-1.89-3.65-3-17.13-14.12-59-46.68-68-35.14-4.48,5.76-8.07,13.67-10.39,22.18a84.26,84.26,0,0,0-2.62,14.87C209.63,219.27,210.34,227.37,212.8,233.82Z"/><path class="cls-4" d="M229,177.19c-1.18,1.75,9.09,10.7,22.94,20s26,15.38,27.2,13.62-9.09-10.7-22.94-20S230.15,175.43,229,177.19Z"/><path class="cls-4" d="M281.57,227.16c0,4.86,1.83,8.06,5.13,10.42,2.13-.26,3.57,2.25,5.22,2a25.82,25.82,0,0,0,18.67,7.5c13.19,0,23.88-8.93,23.88-20s-10.69-20-23.88-20A26.65,26.65,0,0,0,295,212.05c-1-.87-.76,0-2.15-1.14C286.85,215.35,281.57,219.94,281.57,227.16Z"/><path class="cls-3" d="M334.47,227.16a18,18,0,0,1-5.22,12.46,25.81,25.81,0,0,1-18.66,7.5c-13.2,0-23.89-8.93-23.89-20s10.69-20,23.89-20a26.64,26.64,0,0,1,15.58,4.85C331.25,215.7,334.47,221.12,334.47,227.16Z"/><rect class="cls-5" x="168.61" y="237.58" width="283.95" height="72.32" rx="13.1"/><rect class="cls-3" x="292.67" y="237.34" width="35.83" height="234.76"/><rect class="cls-4" x="292.73" y="309.89" width="35.71" height="15.59"/><line class="cls-7" x1="549.1" y1="472.11" x2="13.49" y2="472.11"/><path class="cls-1" d="M68.77,173.36c-20.09-6.2-29.07-21.23-32.36-42.67S39.7,87.44,49,67.83C59.2,46.24,73.3,25.73,93.33,12.71S140.1-4.66,161.48,6s34.23,38.24,24.57,60.09c-13.73,31-59.58,35-76.83,64.21-6,10.09-7.8,22.25-14.15,32.1S81.33,176.25,68.77,173.36Z"/><g class="cls-8"><path class="cls-9" d="M26.12,238C22.3,226.38,28,211.89,39.41,207.53c8.71-3.32,19.26-.28,25.37,6.76s7.76,17.45,4.76,26.28C61.25,265,33.6,260.74,26.12,238Z"/></g></g></g></svg>