<svg xmlns="http://www.w3.org/2000/svg" viewBox="0 0 131.42 116.78"><defs><style>.cls-1{fill:#fff;}</style></defs><g id="Layer_2" data-name="Layer 2"><g id="Layer_1-2" data-name="Layer 1"><g id="Semibold-L"><path class="cls-1" d="M126.36,25,79,3.3C73.87,1,69.75-.07,65.71,0s-8.2,1-13.33,3.3L5.05,25a7.87,7.87,0,0,0-5,7.11C0,35,1.76,37.71,5.05,39.2l19.17,8.62L55.3,33.18a1.94,1.94,0,0,1-.38-1.09c0-3.52,5.25-6.1,10.9-6.1s10.86,2.58,10.86,6.1-5.21,6.22-10.86,6.22a17.72,17.72,0,0,1-5.13-.75L31.41,51.3l21,9.58c5.17,2.4,9.28,3.37,13.33,3.3s8.16-.94,13.29-3.3L126.36,39.2c3.3-1.53,5.06-4.19,5.06-7.11A7.86,7.86,0,0,0,126.36,25ZM31.3,58.75V86.6c8.35,5,20.26,8.17,34.41,8.17,28.15,0,47.47-12.4,47.47-26.85V52.76L81.84,67.13a38.19,38.19,0,0,1-16.13,3.94c-5,0-10.34-1.28-16.18-3.94Zm-13.1-6V67.92c0,4.12,2.17,8.91,6.17,13.07V55.64ZM20,97.54v12.54c0,4.08,2.62,6.7,6.7,6.7H28.9c4.08,0,6.71-2.62,6.71-6.7V97.54c0-3.19-1.61-5.51-4.31-6.37V86.6A29.26,29.26,0,0,1,24.37,81V91.17C21.68,92,20,94.32,20,97.54Z"/></g></g></g></svg>