<svg xmlns="http://www.w3.org/2000/svg" xmlns:xlink="http://www.w3.org/1999/xlink" viewBox="0 0 2088.81 1600.41"><defs><style>.cls-1{mask:url(#mask);filter:url(#luminosity-noclip-6);}.cls-10,.cls-2,.cls-33,.cls-4,.cls-6,.cls-8{mix-blend-mode:multiply;}.cls-2{fill:url(#linear-gradient);}.cls-3{mask:url(#mask-2);filter:url(#luminosity-noclip-7);}.cls-4{fill:url(#linear-gradient-2);}.cls-5{mask:url(#mask-3);filter:url(#luminosity-noclip-8);}.cls-6{fill:url(#linear-gradient-3);}.cls-7{mask:url(#mask-4);filter:url(#luminosity-noclip-9);}.cls-8{fill:url(#linear-gradient-4);}.cls-9{mask:url(#mask-5);filter:url(#luminosity-noclip-10);}.cls-10{fill:url(#linear-gradient-5);}.cls-11{isolation:isolate;}.cls-12{fill:#13667f;}.cls-13{fill:#29d3ce;}.cls-14{mask:url(#mask-6);}.cls-15{fill:url(#linear-gradient-6);}.cls-16{mask:url(#mask-7);}.cls-17{fill:url(#linear-gradient-7);}.cls-18{mask:url(#mask-8);}.cls-19{fill:url(#linear-gradient-8);}.cls-20,.cls-21,.cls-26,.cls-35,.cls-65,.cls-66,.cls-67,.cls-69,.cls-72,.cls-73,.cls-76,.cls-78{mix-blend-mode:color-burn;}.cls-20,.cls-21{opacity:0.75;}.cls-20{fill:url(#linear-gradient-9);}.cls-21{fill:url(#linear-gradient-10);}.cls-22{fill:#2dccd3;}.cls-23{fill:#63e5e5;}.cls-24{fill:#1cb5b5;}.cls-25{fill:#f5f5f5;}.cls-26{fill:url(#linear-gradient-11);}.cls-27{fill:#7befe9;}.cls-28{fill:#0dadb5;}.cls-29{mask:url(#mask-9);}.cls-30,.cls-35{opacity:0.5;}.cls-30{fill:url(#linear-gradient-12);}.cls-31{mask:url(#mask-10);}.cls-32{fill:url(#linear-gradient-13);}.cls-33{fill:url(#linear-gradient-14);}.cls-34{fill:#c4f2ed;}.cls-36{fill:url(#linear-gradient-15);}.cls-37{fill:url(#linear-gradient-16);}.cls-38{fill:url(#linear-gradient-17);}.cls-39{fill:url(#linear-gradient-18);}.cls-40{fill:url(#linear-gradient-19);}.cls-41{fill:url(#linear-gradient-20);}.cls-42{fill:url(#linear-gradient-21);}.cls-43{fill:url(#linear-gradient-22);}.cls-44{fill:url(#linear-gradient-23);}.cls-45{fill:url(#linear-gradient-24);}.cls-46{fill:#e59055;}.cls-47{fill:#0c1b29;}.cls-48{fill:#f4aa74;}.cls-49{fill:#082947;}.cls-50{fill:url(#linear-gradient-25);}.cls-51{fill:url(#linear-gradient-26);}.cls-52{fill:url(#linear-gradient-27);}.cls-53{fill:#f5ab74;}.cls-54{fill:url(#linear-gradient-28);}.cls-55{fill:url(#linear-gradient-29);}.cls-56{fill:#0f1b29;}.cls-57{fill:#f7bb92;}.cls-58{fill:url(#linear-gradient-30);}.cls-59{fill:url(#linear-gradient-31);}.cls-60{fill:url(#linear-gradient-32);}.cls-61{fill:url(#linear-gradient-33);}.cls-62{fill:url(#linear-gradient-34);}.cls-63{fill:url(#linear-gradient-35);}.cls-64{fill:url(#linear-gradient-36);}.cls-65{fill:#bcbcbc;}.cls-66,.cls-67,.cls-69,.cls-74{opacity:0.25;}.cls-66{fill:url(#linear-gradient-37);}.cls-67{fill:url(#linear-gradient-38);}.cls-68{fill:url(#linear-gradient-39);}.cls-69{fill:url(#linear-gradient-40);}.cls-70{fill:url(#linear-gradient-41);}.cls-71{fill:url(#linear-gradient-42);}.cls-72{fill:url(#linear-gradient-43);}.cls-73{fill:url(#linear-gradient-44);}.cls-75{fill:#fff;}.cls-77{fill:url(#linear-gradient-45);}.cls-78{fill:url(#linear-gradient-46);}.cls-79{fill:url(#linear-gradient-47);}.cls-80{fill:#f4ad7d;}.cls-81{fill:url(#linear-gradient-48);}.cls-82{fill:url(#linear-gradient-49);}.cls-83{fill:url(#linear-gradient-50);}.cls-84{filter:url(#luminosity-noclip-5);}.cls-85{filter:url(#luminosity-noclip-4);}.cls-86{filter:url(#luminosity-noclip-3);}.cls-87{filter:url(#luminosity-noclip-2);}.cls-88{filter:url(#luminosity-noclip);}</style><filter id="luminosity-noclip" x="1318.78" y="-8975.44" width="63.26" height="32766" filterUnits="userSpaceOnUse" color-interpolation-filters="sRGB"><feFlood flood-color="#fff" result="bg"/><feBlend in="SourceGraphic" in2="bg"/></filter><mask id="mask" x="1318.78" y="-8975.44" width="63.26" height="32766" maskUnits="userSpaceOnUse"><g class="cls-88"/></mask><linearGradient id="linear-gradient" x1="844.51" y1="-163.02" x2="1647.88" y2="808.17" gradientUnits="userSpaceOnUse"><stop offset="0" stop-color="#fff"/><stop offset="1"/></linearGradient><filter id="luminosity-noclip-2" x="1194.02" y="-8975.44" width="133.26" height="32766" filterUnits="userSpaceOnUse" color-interpolation-filters="sRGB"><feFlood flood-color="#fff" result="bg"/><feBlend in="SourceGraphic" in2="bg"/></filter><mask id="mask-2" x="1194.02" y="-8975.44" width="133.26" height="32766" maskUnits="userSpaceOnUse"><g class="cls-87"/></mask><linearGradient id="linear-gradient-2" x1="854.77" y1="-171.46" x2="1658.09" y2="799.67" xlink:href="#linear-gradient"/><filter id="luminosity-noclip-3" x="1353.82" y="-8975.44" width="43.1" height="32766" filterUnits="userSpaceOnUse" color-interpolation-filters="sRGB"><feFlood flood-color="#fff" result="bg"/><feBlend in="SourceGraphic" in2="bg"/></filter><mask id="mask-3" x="1353.82" y="-8975.44" width="43.1" height="32766" maskUnits="userSpaceOnUse"><g class="cls-86"/></mask><linearGradient id="linear-gradient-3" x1="808.78" y1="-133.52" x2="1612.19" y2="837.72" xlink:href="#linear-gradient"/><filter id="luminosity-noclip-4" x="1733.68" y="-8975.44" width="196.86" height="32766" filterUnits="userSpaceOnUse" color-interpolation-filters="sRGB"><feFlood flood-color="#fff" result="bg"/><feBlend in="SourceGraphic" in2="bg"/></filter><mask id="mask-4" x="1733.68" y="-8975.44" width="196.86" height="32766" maskUnits="userSpaceOnUse"><g class="cls-85"/></mask><linearGradient id="linear-gradient-4" x1="1776.03" y1="1711.95" x2="1886.16" y2="1365.95" gradientUnits="userSpaceOnUse"><stop offset="0" stop-color="#fff"/><stop offset="0.34" stop-color="#9d9d9d"/><stop offset="0.67" stop-color="#494949"/><stop offset="0.89" stop-color="#141414"/><stop offset="1"/></linearGradient><filter id="luminosity-noclip-5" x="1531.75" y="-8975.44" width="244.3" height="32766" filterUnits="userSpaceOnUse" color-interpolation-filters="sRGB"><feFlood flood-color="#fff" result="bg"/><feBlend in="SourceGraphic" in2="bg"/></filter><mask id="mask-5" x="1531.75" y="-8975.44" width="244.3" height="32766" maskUnits="userSpaceOnUse"><g class="cls-84"/></mask><linearGradient id="linear-gradient-5" x1="1597.48" y1="1840.75" x2="1681.83" y2="1382.98" xlink:href="#linear-gradient-4"/><filter id="luminosity-noclip-6" x="1318.78" y="396.85" width="63.26" height="103.45" filterUnits="userSpaceOnUse" color-interpolation-filters="sRGB"><feFlood flood-color="#fff" result="bg"/><feBlend in="SourceGraphic" in2="bg"/></filter><mask id="mask-6" x="1318.78" y="396.85" width="63.26" height="103.45" maskUnits="userSpaceOnUse"><g class="cls-1"><path class="cls-2" d="M1366.79,499.59a20.64,20.64,0,0,0,14.54-25.3A435.84,435.84,0,0,0,1358.25,409,20.64,20.64,0,0,0,1320.61,426,394.3,394.3,0,0,1,1341.49,485a20.64,20.64,0,0,0,19.92,15.26A20.88,20.88,0,0,0,1366.79,499.59Z"/></g></mask><linearGradient id="linear-gradient-6" x1="844.51" y1="-163.02" x2="1647.88" y2="808.17" gradientUnits="userSpaceOnUse"><stop offset="0" stop-color="#fff"/><stop offset="1" stop-color="#fff"/></linearGradient><filter id="luminosity-noclip-7" x="1194.02" y="258.47" width="133.26" height="122.47" filterUnits="userSpaceOnUse" color-interpolation-filters="sRGB"><feFlood flood-color="#fff" result="bg"/><feBlend in="SourceGraphic" in2="bg"/></filter><mask id="mask-7" x="1194.02" y="258.47" width="133.26" height="122.47" maskUnits="userSpaceOnUse"><g class="cls-3"><path class="cls-4" d="M1323.39,348.23A292.46,292.46,0,0,0,1224.46,261a20.63,20.63,0,1,0-19.59,36.31,251.58,251.58,0,0,1,85,75.11,20.66,20.66,0,0,0,16.76,8.56,20.64,20.64,0,0,0,16.72-32.71Z"/></g></mask><linearGradient id="linear-gradient-7" x1="854.77" y1="-171.46" x2="1658.09" y2="799.67" xlink:href="#linear-gradient-6"/><filter id="luminosity-noclip-8" x="1353.82" y="523.69" width="43.1" height="55.45" filterUnits="userSpaceOnUse" color-interpolation-filters="sRGB"><feFlood flood-color="#fff" result="bg"/><feBlend in="SourceGraphic" in2="bg"/></filter><mask id="mask-8" x="1353.82" y="523.69" width="43.1" height="55.45" maskUnits="userSpaceOnUse"><g class="cls-5"><path class="cls-6" d="M1396.78,556.12q-.87-7.41-1.89-14.66a20.63,20.63,0,1,0-40.86,5.75q.95,6.76,1.75,13.68a20.64,20.64,0,0,0,20.48,18.25,22,22,0,0,0,2.41-.13A20.65,20.65,0,0,0,1396.78,556.12Z"/></g></mask><linearGradient id="linear-gradient-8" x1="808.78" y1="-133.52" x2="1612.19" y2="837.72" xlink:href="#linear-gradient-6"/><linearGradient id="linear-gradient-9" x1="724.21" y1="1414.75" x2="724.21" y2="434.71" gradientUnits="userSpaceOnUse"><stop offset="0" stop-color="#5e5e5e"/><stop offset="1" stop-color="#fff"/></linearGradient><linearGradient id="linear-gradient-10" x1="1048.1" y1="1252.9" x2="1048.1" y2="1336.82" xlink:href="#linear-gradient-9"/><linearGradient id="linear-gradient-11" x1="5520.87" y1="1352.4" x2="5065.05" y2="1807.18" gradientTransform="matrix(-1, 0, 0, 1, 5781.05, 0)" gradientUnits="userSpaceOnUse"><stop offset="0" stop-color="#fff"/><stop offset="1" stop-color="#c2c2c2"/></linearGradient><filter id="luminosity-noclip-9" x="1733.68" y="1392.45" width="196.86" height="207.96" filterUnits="userSpaceOnUse" color-interpolation-filters="sRGB"><feFlood flood-color="#fff" result="bg"/><feBlend in="SourceGraphic" in2="bg"/></filter><mask id="mask-9" x="1733.68" y="1392.45" width="196.86" height="207.96" maskUnits="userSpaceOnUse"><g class="cls-7"><path class="cls-8" d="M1824.85,1523.12c20.81-39.59,24.29-77.74,24.33-78.12a1.84,1.84,0,0,0-1.7-2,1.86,1.86,0,0,0-2,1.67c0,.38-3.44,37.78-23.9,76.72-14.93,28.37-41.63,62.13-87.9,79h10.23a154.67,154.67,0,0,0,34.07-20.1C1796.84,1565.65,1812.61,1546.4,1824.85,1523.12Zm46.83-103.49a1.85,1.85,0,0,0-1.79-1.91,1.87,1.87,0,0,0-1.92,1.78c-1,30.74-10.91,121.55-88.59,180.91h6.23c26-20.69,46.5-46.69,61.31-77.81C1866.89,1480.55,1871,1440,1871.68,1419.63Zm57.08,30.55a1.87,1.87,0,0,0-1.91,1.79c0,.24-.9,24.62-12.93,58.69a286.43,286.43,0,0,1-51.91,89.75h4.85a290.89,290.89,0,0,0,50.56-88.51c12.2-34.62,13.12-59.55,13.12-59.81A1.85,1.85,0,0,0,1928.76,1450.18Zm-16.41-27a1.85,1.85,0,1,0-3.69-.12c-2.54,77.47-34.91,135.66-72.07,177.31h5.09a287.09,287.09,0,0,0,51.5-83.4A274.08,274.08,0,0,0,1912.35,1423.22Zm-20-30.76a1.85,1.85,0,0,0-1.9,1.77c-2.14,64.9-14.28,137.77-77.22,206.18h5c61.73-68.46,73.75-141.21,75.9-206.05A1.83,1.83,0,0,0,1892.38,1392.46Z"/></g></mask><linearGradient id="linear-gradient-12" x1="1776.03" y1="1711.95" x2="1886.16" y2="1365.95" xlink:href="#linear-gradient-6"/><filter id="luminosity-noclip-10" x="1531.75" y="1373.94" width="244.3" height="226.48" filterUnits="userSpaceOnUse" color-interpolation-filters="sRGB"><feFlood flood-color="#fff" result="bg"/><feBlend in="SourceGraphic" in2="bg"/></filter><mask id="mask-10" x="1531.75" y="1373.94" width="244.3" height="226.48" maskUnits="userSpaceOnUse"><g class="cls-9"><path class="cls-10" d="M1536.83,1535.6a2.81,2.81,0,0,0-4.53,3.32,470.69,470.69,0,0,0,56,61.49h8.44C1562.35,1570.2,1537.13,1536,1536.83,1535.6Zm238.91-5a2.8,2.8,0,0,0-3.78-1.23c-.91.47-89.57,45.49-133.56,54.88.86-18.65,2.71-37.28,5.2-55.29,34.32-9.81,72-28,72.41-28.17a2.81,2.81,0,1,0-2.46-5.06c-.37.18-35.89,17.3-69.08,27.12,2.4-16.34,5.28-32.11,8.35-46.84l55.85-24.1a2.82,2.82,0,1,0-2.23-5.18l-52.18,22.53c11.42-52.83,24.7-90.84,24.93-91.53a2.81,2.81,0,0,0-5.3-1.88c-.21.6-9.94,28.49-20,69.67-12.07-17.86-24.46-41.12-24.59-41.37a2.81,2.81,0,1,0-5,2.64c.15.28,14.71,27.62,27.82,46.07-1.51,6.41-3,13.1-4.46,20a2.72,2.72,0,0,0-.26,1.23c-1.27,6.07-2.51,12.34-3.7,18.75-20-18.65-33.46-41.83-33.61-42.08a2.81,2.81,0,0,0-4.87,2.81c.63,1.08,15.24,26.2,37.3,45.79-1.54,8.6-3,17.44-4.22,26.45a2.75,2.75,0,0,0-.17,1.15c-.69,4.94-1.34,9.94-1.94,15-52.41-50.59-76.87-107.19-77.12-107.77a2.81,2.81,0,0,0-5.17,2.2c.25.6,26.07,60.43,81.5,112.6-1.2,11.33-2.12,22.8-2.65,34.3-20.14-11.1-50.24-43.81-50.57-44.17a2.81,2.81,0,0,0-4.15,3.79c1.39,1.52,33.4,36.31,54.46,46.58q-.19,5.5-.24,11h5.61q.06-5.19.24-10.4c44.23-8.89,132.53-53.74,136.33-55.67A2.8,2.8,0,0,0,1775.74,1530.56Z"/></g></mask><linearGradient id="linear-gradient-13" x1="1597.48" y1="1840.75" x2="1681.83" y2="1382.98" xlink:href="#linear-gradient-6"/><linearGradient id="linear-gradient-14" x1="1152.52" y1="-107.94" x2="1152.52" y2="1558.91" gradientUnits="userSpaceOnUse"><stop offset="0" stop-color="#a5a5a5"/><stop offset="1" stop-color="#fff"/></linearGradient><linearGradient id="linear-gradient-15" x1="1267.61" y1="801.25" x2="1366.2" y2="801.25" gradientUnits="userSpaceOnUse"><stop offset="0" stop-color="#fff"/><stop offset="1" stop-color="#9d9d9d"/></linearGradient><linearGradient id="linear-gradient-16" x1="1232.7" y1="597.37" x2="1304.74" y2="597.37" xlink:href="#linear-gradient-15"/><linearGradient id="linear-gradient-17" x1="1387.35" y1="1209.01" x2="1485.02" y2="1209.01" xlink:href="#linear-gradient-15"/><linearGradient id="linear-gradient-18" x1="1327.48" y1="1005.13" x2="1425.61" y2="1005.13" xlink:href="#linear-gradient-15"/><linearGradient id="linear-gradient-19" x1="1447.22" y1="1412.89" x2="1544.42" y2="1412.89" xlink:href="#linear-gradient-15"/><linearGradient id="linear-gradient-20" x1="1075.77" y1="597.37" x2="1188.25" y2="597.37" gradientUnits="userSpaceOnUse"><stop offset="0" stop-color="#9d9d9d"/><stop offset="1" stop-color="#fff"/></linearGradient><linearGradient id="linear-gradient-21" x1="1135.18" y1="801.25" x2="1248.12" y2="801.25" xlink:href="#linear-gradient-20"/><linearGradient id="linear-gradient-22" x1="1313.4" y1="1412.89" x2="1427.72" y2="1412.89" xlink:href="#linear-gradient-20"/><linearGradient id="linear-gradient-23" x1="1253.99" y1="1209.01" x2="1367.86" y2="1209.01" xlink:href="#linear-gradient-20"/><linearGradient id="linear-gradient-24" x1="1194.59" y1="1005.13" x2="1307.99" y2="1005.13" xlink:href="#linear-gradient-20"/><linearGradient id="linear-gradient-25" x1="12619.94" y1="2601.19" x2="12619.94" y2="3082.45" gradientTransform="matrix(-1, -0.03, -0.03, 1, 14062.65, -1646.78)" gradientUnits="userSpaceOnUse"><stop offset="0" stop-color="#f8b37f"/><stop offset="1" stop-color="#eb8744"/></linearGradient><linearGradient id="linear-gradient-26" x1="12630.85" y1="2599.47" x2="12630.85" y2="3085.05" xlink:href="#linear-gradient-25"/><linearGradient id="linear-gradient-27" x1="1390.72" y1="757.52" x2="1389.12" y2="946.32" gradientUnits="userSpaceOnUse"><stop offset="0" stop-color="#63e5e5"/><stop offset="0.48" stop-color="#4dd6d4"/><stop offset="1" stop-color="#39c9c5"/></linearGradient><linearGradient id="linear-gradient-28" x1="1287.24" y1="825.49" x2="1352.04" y2="694.29" gradientUnits="userSpaceOnUse"><stop offset="0" stop-color="#03898c"/><stop offset="0.46" stop-color="#089e9b"/><stop offset="1" stop-color="#0db2aa"/></linearGradient><linearGradient id="linear-gradient-29" x1="-24994.79" y1="2525.72" x2="-24940.97" y2="2799.6" gradientTransform="translate(24222.31 -6004.53) rotate(-10.99)" gradientUnits="userSpaceOnUse"><stop offset="0" stop-color="#0f1e2d"/><stop offset="1" stop-color="#082947"/></linearGradient><linearGradient id="linear-gradient-30" x1="-24089.04" y1="2282.6" x2="-24035.22" y2="2556.47" gradientTransform="translate(24192.94 -1830.11) rotate(-1.86)" xlink:href="#linear-gradient-29"/><linearGradient id="linear-gradient-31" x1="236.78" y1="1379.6" x2="236.78" y2="1555.86" xlink:href="#linear-gradient-27"/><linearGradient id="linear-gradient-32" x1="85.38" y1="1379.6" x2="85.38" y2="1555.86" xlink:href="#linear-gradient-27"/><linearGradient id="linear-gradient-33" x1="202.15" y1="1144.28" x2="141.75" y2="1085.08" xlink:href="#linear-gradient-28"/><linearGradient id="linear-gradient-34" x1="106.55" y1="1097.5" x2="138.55" y2="1260.7" xlink:href="#linear-gradient-27"/><linearGradient id="linear-gradient-35" x1="80.49" y1="1003.85" x2="135.02" y2="1024.25" xlink:href="#linear-gradient-27"/><linearGradient id="linear-gradient-36" x1="77.47" y1="1011.91" x2="132" y2="1032.31" xlink:href="#linear-gradient-27"/><linearGradient id="linear-gradient-37" x1="198.7" y1="583.57" x2="277" y2="583.57" xlink:href="#linear-gradient-9"/><linearGradient id="linear-gradient-38" x1="3034.29" y1="583.57" x2="3112.59" y2="583.57" gradientTransform="matrix(-1, 0, 0, 1, 3435.69, 0)" xlink:href="#linear-gradient-9"/><linearGradient id="linear-gradient-39" x1="139.48" y1="1176.15" x2="67.88" y2="1111.35" xlink:href="#linear-gradient-28"/><linearGradient id="linear-gradient-40" x1="300.05" y1="639.6" x2="300.05" y2="805.59" xlink:href="#linear-gradient-9"/><linearGradient id="linear-gradient-41" x1="4460.26" y1="1180.35" x2="4460.26" y2="1457.84" gradientTransform="matrix(-1, 0, 0, 1, 6490.17, 0)" xlink:href="#linear-gradient-29"/><linearGradient id="linear-gradient-42" x1="4453.59" y1="1180.88" x2="4453.59" y2="1457.72" gradientTransform="matrix(-1, 0, 0, 1, 6490.17, 0)" xlink:href="#linear-gradient-29"/><linearGradient id="linear-gradient-43" x1="1430.37" y1="1209.33" x2="1311.97" y2="1090.93" gradientTransform="translate(542.66)" gradientUnits="userSpaceOnUse"><stop offset="0" stop-color="#828184"/><stop offset="1" stop-color="#fff"/></linearGradient><linearGradient id="linear-gradient-44" x1="1247.45" y1="975.13" x2="1247.45" y2="1127.48" xlink:href="#linear-gradient-43"/><linearGradient id="linear-gradient-45" x1="3934.2" y1="1125.68" x2="3934.2" y2="1037.66" gradientTransform="translate(-2080.98)" xlink:href="#linear-gradient-43"/><linearGradient id="linear-gradient-46" x1="1204.7" y1="1135.08" x2="1445.34" y2="1135.08" xlink:href="#linear-gradient-43"/><linearGradient id="linear-gradient-47" x1="1997.09" y1="1053" x2="1996.29" y2="1260.2" xlink:href="#linear-gradient-27"/><linearGradient id="linear-gradient-48" x1="1950.14" y1="1050.35" x2="1873.34" y2="1121.15" xlink:href="#linear-gradient-28"/><linearGradient id="linear-gradient-49" x1="4517.29" y1="960.48" x2="4517.29" y2="1080.53" gradientTransform="matrix(-1, 0, 0, 1, 6490.17, 0)" gradientUnits="userSpaceOnUse"><stop offset="0" stop-color="#fc4700"/><stop offset="0.53" stop-color="#fa2b00"/><stop offset="1" stop-color="#f91700"/></linearGradient><linearGradient id="linear-gradient-50" x1="4505.24" y1="960.48" x2="4505.24" y2="1080.53" xlink:href="#linear-gradient-49"/></defs><g class="cls-11"><g id="Layer_2" data-name="Layer 2"><g id="Layer_1-2" data-name="Layer 1"><path class="cls-12" d="M1048.1,0C979.69,0,924.23,53.18,924.23,118.56s55.46,118.78,123.87,118.78S1172,183.92,1172,118.56,1116.49,0,1048.1,0Zm0,173.63c-31.69,0-57.36-24.76-57.36-55s25.67-54.9,57.36-54.9,57.34,24.64,57.34,54.9S1079.77,173.63,1048.1,173.63Z"/><path class="cls-13" d="M1422.32,644.59c0-285.88-140.64-444.7-374.22-444.7S673.89,358.71,673.89,644.59c0,382.89-172,504.84-172,504.84h1092.5S1422.32,1027.48,1422.32,644.59Z"/><g class="cls-14"><path class="cls-15" d="M1366.79,499.59a20.64,20.64,0,0,0,14.54-25.3A435.84,435.84,0,0,0,1358.25,409,20.64,20.64,0,0,0,1320.61,426,394.3,394.3,0,0,1,1341.49,485a20.64,20.64,0,0,0,19.92,15.26A20.88,20.88,0,0,0,1366.79,499.59Z"/></g><g class="cls-16"><path class="cls-17" d="M1323.39,348.23A292.46,292.46,0,0,0,1224.46,261a20.63,20.63,0,1,0-19.59,36.31,251.58,251.58,0,0,1,85,75.11,20.66,20.66,0,0,0,16.76,8.56,20.64,20.64,0,0,0,16.72-32.71Z"/></g><g class="cls-18"><path class="cls-19" d="M1396.78,556.12q-.87-7.41-1.89-14.66a20.63,20.63,0,1,0-40.86,5.75q.95,6.76,1.75,13.68a20.64,20.64,0,0,0,20.48,18.25,22,22,0,0,0,2.41-.13A20.65,20.65,0,0,0,1396.78,556.12Z"/></g><path class="cls-12" d="M1695.87,1200.81a51.54,51.54,0,0,1-51.39,51.4H451.71a51.39,51.39,0,1,1,0-102.78H1644.48A51.53,51.53,0,0,1,1695.87,1200.81Z"/><path class="cls-20" d="M673.89,644.59c0,382.89-172,504.84-172,504.84H451.71a51.39,51.39,0,1,0,0,102.78H719.09c-15.58,0-28.36-23.12-28.36-51.4s12.78-51.38,28.36-51.38h27.66s94.91-122,94.91-504.84c0-285.88,77.57-444.7,206.44-444.7C814.53,199.89,673.89,358.71,673.89,644.59Z"/><path class="cls-13" d="M1048.1,1363.68c84.49,0,158-45.15,196.05-111.47H852.05C890.08,1318.53,963.61,1363.68,1048.1,1363.68Z"/><path class="cls-21" d="M1048.1,1363.68c84.49,0,158-45.15,196.05-111.47H852.05C890.08,1318.53,963.61,1363.68,1048.1,1363.68Z"/><path class="cls-22" d="M164.28,1600.41c-4-10.6-11.23-22.55-24-34.59-38.52-36.26-98.53-26.41-107,11.27-1.78,7.92-.51,15.81,2.59,23.32Z"/><path class="cls-22" d="M142.9,1451c25.12-29.41,23.95-67,8.06-69.57C127.06,1377.55,126.49,1426.43,142.9,1451Z"/><path class="cls-22" d="M168.39,1521q-2.28-9.23-5.25-18.23c26.25-16,35.67-43.77,24.41-50.53-14.27-8.57-27.36,14.64-29.26,37a260.69,260.69,0,0,0-26.84-50.93,3.87,3.87,0,0,0-1.11-1.1c-18.14-22.41-50.08-27.14-58.09-12-8.08,15.32,16.59,45.56,68.13,44.46a248.84,248.84,0,0,1,23.1,68.38l8.63.85Q170.55,1529.82,168.39,1521Z"/><path class="cls-22" d="M255,1562.7c-13.48,14-19.54,26.88-21.76,37.71H372.61c10.83-13.78,18.16-29.94,10.64-44.22C365.68,1522.81,293,1523.23,255,1562.7Z"/><path class="cls-23" d="M231.44,1508.25c33.2,1.3,53,49.23,37.42,88.72a31,31,0,0,1-1.63,3.44H143.52c-23.17-22-60.84-75-38.12-92.16,23.65-17.85,67.2,8.29,91.15,38C201.59,1526.79,210.64,1507.43,231.44,1508.25Z"/><path class="cls-24" d="M325.81,1508.7c-22.3-9.12-63.27-4.8-66.06-17.18s19.33-35,13.18-65-21.62-37.35-21.62-37.35,35.38,5.58,67-5.81,50.84-23.18,62.75,9.32,16.45,48.63,34.71,61.48,37.2,10.69,21.3-25.08-42.35-57.46-42.35-57.46,34.5-11.66,85.56.36,71.57,29.59,67.79,65.72-34.9,93.9-10.84,106.61,39.27-40.52,41.38-70.3-2.7-50.82-2.7-50.82,48.52,7.86,60.49,76.86c8.74,50.42-7.35,82.21-38.85,100.35H277.79c-9.55-20.56-10.91-34.19-10.91-34.19s37.54,31.75,75.47,24.68,64.74-33.47,17.49-30.13-58.46,25.54-85.27-2.3-23.25-44.7-23.25-44.7,27.89,10.2,55.39,13.93S348.09,1517.84,325.81,1508.7Z"/><path class="cls-25" d="M613.73,1523.91c14.19,7.84-12,40.51-23.79,31.89S598,1515.24,613.73,1523.91Z"/><path class="cls-25" d="M525.13,1569.5c-10.37,17.43-38.77-8-29-18C507.75,1539.68,535.47,1552.07,525.13,1569.5Z"/><path class="cls-25" d="M481.12,1414.68c6.77,1.29,22.05,5,20.84,26.46s-25.15,16.14-28.57-2S481.12,1414.68,481.12,1414.68Z"/><path class="cls-25" d="M469.27,1472.78c20.75-1.33,27,38.45,4.48,39.29S449.39,1474.06,469.27,1472.78Z"/><path class="cls-25" d="M303.87,1476.55c-16.68-1.07-20-11-11.18-17.84,6.41-5,8.6-12.88,23.7-2.7S320.56,1477.62,303.87,1476.55Z"/><path class="cls-25" d="M382.82,1512.84c21.52-.73,20.1,9.38,8.14,17.27s-27.74-5.77-25.46-11.35S382.82,1512.84,382.82,1512.84Z"/><path class="cls-25" d="M338.3,1399.61l-.56.08c5.82-3.07,20.3-9.41,26.59,18.69s-13.4,28-23.92,13.84S327.29,1406.25,338.3,1399.61Z"/><path class="cls-26" d="M329.43,1439.52c10.26,8,22,18,34.35,29.38,6.16,5.68,12.49,11.74,18.86,18.07s12.89,13,19.62,19.52c13.45,13.14,27.6,26.32,41.93,38.71s28.79,24,42.73,34.09c11,8,21.62,15.1,31.41,21.12h19.49c-2.26-1.22-4.6-2.49-7-3.85-11.64-6.51-25-14.67-38.94-24.27s-28.64-20.61-43.22-32.43-29.07-24.45-42.89-37.06c-6.94-6.31-13.62-12.64-20.24-18.82s-13.2-12-19.6-17.5c-12.8-11-24.94-20.54-35.53-28.24s-19.61-13.51-26-17.31-10.2-5.62-10.2-5.62,3.72,2,10,6S319.17,1431.47,329.43,1439.52Z"/><path class="cls-27" d="M2045.24,1571.22c3.89,9.43.1,20.09-5.49,29.19h-72c1.14-7.14,4.27-15.67,11.23-24.89C1998.66,1549.46,2036.17,1549.19,2045.24,1571.22Z"/><path class="cls-28" d="M1915.27,1535.18c-41.68,3.14-54.81,64.46-54.39,65.23H1977.5c16.4-15.54,43.06-53.09,27-65.23-16.73-12.62-47.57,5.87-64.52,26.87C1936.4,1548.3,1930,1534.08,1915.27,1535.18Z"/><path class="cls-27" d="M1911.12,1563.24a294.12,294.12,0,0,1-23.78,37.17H1688.77a179.41,179.41,0,0,0,141.07-145.51,121.87,121.87,0,0,1,18.11-46.22c11-16.28,23.37-25.78,36.94-28.25l.09,0a35.55,35.55,0,0,1,6.66-.59c14.21.11,27.89,8.7,37.53,23.6,12.23,18.56,17.09,45.58,12.67,70.51A291.45,291.45,0,0,1,1911.12,1563.24Z"/><g class="cls-29"><path class="cls-30" d="M1824.85,1523.12c20.81-39.59,24.29-77.74,24.33-78.12a1.84,1.84,0,0,0-1.7-2,1.86,1.86,0,0,0-2,1.67c0,.38-3.44,37.78-23.9,76.72-14.93,28.37-41.63,62.13-87.9,79h10.23a154.67,154.67,0,0,0,34.07-20.1C1796.84,1565.65,1812.61,1546.4,1824.85,1523.12Zm46.83-103.49a1.85,1.85,0,0,0-1.79-1.91,1.87,1.87,0,0,0-1.92,1.78c-1,30.74-10.91,121.55-88.59,180.91h6.23c26-20.69,46.5-46.69,61.31-77.81C1866.89,1480.55,1871,1440,1871.68,1419.63Zm57.08,30.55a1.87,1.87,0,0,0-1.91,1.79c0,.24-.9,24.62-12.93,58.69a286.43,286.43,0,0,1-51.91,89.75h4.85a290.89,290.89,0,0,0,50.56-88.51c12.2-34.62,13.12-59.55,13.12-59.81A1.85,1.85,0,0,0,1928.76,1450.18Zm-16.41-27a1.85,1.85,0,1,0-3.69-.12c-2.54,77.47-34.91,135.66-72.07,177.31h5.09a287.09,287.09,0,0,0,51.5-83.4A274.08,274.08,0,0,0,1912.35,1423.22Zm-20-30.76a1.85,1.85,0,0,0-1.9,1.77c-2.14,64.9-14.28,137.77-77.22,206.18h5c61.73-68.46,73.75-141.21,75.9-206.05A1.83,1.83,0,0,0,1892.38,1392.46Z"/></g><path class="cls-24" d="M1776.06,1600.41H1543.22c-57.76-45.09-61.66-107.46-33.14-111.38,35.24-4.83-3-43.3,8.24-69.9,12.51-29.59,26.68-28.8,69.41-28.8s46.25-76.88,100.8-65c67.49,14.68,32.25,72.76,48.75,103,23,42.17,89.76-4.07,105,55.88C1855.75,1537.14,1776.06,1600.41,1776.06,1600.41Z"/><g class="cls-31"><path class="cls-32" d="M1536.83,1535.6a2.81,2.81,0,0,0-4.53,3.32,470.69,470.69,0,0,0,56,61.49h8.44C1562.35,1570.2,1537.13,1536,1536.83,1535.6Zm238.91-5a2.8,2.8,0,0,0-3.78-1.23c-.91.47-89.57,45.49-133.56,54.88.86-18.65,2.71-37.28,5.2-55.29,34.32-9.81,72-28,72.41-28.17a2.81,2.81,0,1,0-2.46-5.06c-.37.18-35.89,17.3-69.08,27.12,2.4-16.34,5.28-32.11,8.35-46.84l55.85-24.1a2.82,2.82,0,1,0-2.23-5.18l-52.18,22.53c11.42-52.83,24.7-90.84,24.93-91.53a2.81,2.81,0,0,0-5.3-1.88c-.21.6-9.94,28.49-20,69.67-12.07-17.86-24.46-41.12-24.59-41.37a2.81,2.81,0,1,0-5,2.64c.15.28,14.71,27.62,27.82,46.07-1.51,6.41-3,13.1-4.46,20a2.72,2.72,0,0,0-.26,1.23c-1.27,6.07-2.51,12.34-3.7,18.75-20-18.65-33.46-41.83-33.61-42.08a2.81,2.81,0,0,0-4.87,2.81c.63,1.08,15.24,26.2,37.3,45.79-1.54,8.6-3,17.44-4.22,26.45a2.75,2.75,0,0,0-.17,1.15c-.69,4.94-1.34,9.94-1.94,15-52.41-50.59-76.87-107.19-77.12-107.77a2.81,2.81,0,0,0-5.17,2.2c.25.6,26.07,60.43,81.5,112.6-1.2,11.33-2.12,22.8-2.65,34.3-20.14-11.1-50.24-43.81-50.57-44.17a2.81,2.81,0,0,0-4.15,3.79c1.39,1.52,33.4,36.31,54.46,46.58q-.19,5.5-.24,11h5.61q.06-5.19.24-10.4c44.23-8.89,132.53-53.74,136.33-55.67A2.8,2.8,0,0,0,1775.74,1530.56Z"/></g><path class="cls-33" d="M1255,1600.41h27.6l-.16-1136.33h-27.6l0,119.49H1050.07V464.08h-27.6l.15,1136.33h27.6l0-173.72H1255Zm-.09-609.08H1050.13l0-176.29h204.77Zm-204.76,27.6H1254.9l0,176.28H1050.15Zm204.72-407.76,0,176.28H1050.1l0-176.28Zm-204.67,787.92,0-176.28h204.77l0,176.28Z"/><rect class="cls-34" x="1075.77" y="583.57" width="231.02" height="27.6"/><rect class="cls-34" x="1135.18" y="787.45" width="231.02" height="27.6"/><rect class="cls-34" x="1194.59" y="991.33" width="231.02" height="27.6"/><rect class="cls-34" x="1253.99" y="1195.21" width="231.02" height="27.6"/><rect class="cls-34" x="1313.4" y="1399.09" width="231.02" height="27.6"/><g class="cls-35"><polygon class="cls-36" points="1366.2 787.45 1267.61 787.45 1275.72 815.04 1366.2 815.04 1366.2 787.45"/><polygon class="cls-37" points="1306.8 583.57 1207.74 583.57 1215.85 611.17 1306.8 611.17 1306.8 583.57"/><polygon class="cls-38" points="1485.02 1195.21 1387.35 1195.21 1395.45 1222.81 1485.02 1222.81 1485.02 1195.21"/><polygon class="cls-39" points="1425.61 991.33 1327.48 991.33 1335.59 1018.93 1425.61 1018.93 1425.61 991.33"/><polygon class="cls-40" points="1447.22 1399.09 1455.32 1426.69 1544.42 1426.69 1544.42 1399.09 1447.22 1399.09"/><polygon class="cls-41" points="1180.14 583.57 1075.77 583.57 1075.77 611.17 1188.25 611.17 1180.14 583.57"/><polygon class="cls-42" points="1240.01 787.45 1135.18 787.45 1135.18 815.04 1248.12 815.04 1240.01 787.45"/><polygon class="cls-43" points="1419.62 1399.09 1313.4 1399.09 1313.4 1426.69 1427.72 1426.69 1419.62 1399.09"/><polygon class="cls-44" points="1359.75 1195.21 1253.99 1195.21 1253.99 1222.81 1367.86 1222.81 1359.75 1195.21"/><polygon class="cls-45" points="1299.88 991.33 1194.59 991.33 1194.59 1018.93 1307.98 1018.93 1299.88 991.33"/></g><polygon class="cls-34" points="1616.1 1600.41 1588.5 1600.41 1254.82 464.08 1282.42 464.08 1616.1 1600.41"/><polygon class="cls-34" points="1383.73 1600.41 1356.14 1600.41 1022.46 464.08 1050.06 464.08 1383.73 1600.41"/><path class="cls-46" d="M1277.33,775.71c-2.21-2.8-8-11.8-6-13.12,5.84-3.76,16.85,6.45,21.22,12.46,3.22,4.43-1.21,6.58-1.21,6.58S1281.91,781.56,1277.33,775.71Z"/><path class="cls-46" d="M1387.34,828c-28.17,0-81.58-31-96.68-35.83-14.69,3.28-18.74-4.72-33.89-4.72-3.26,0-4.69-9.55,1.35-12.7,8.1-4.22,30.28-14.56,37.26,5.6,5.41,5.31,64.22,18.33,83.37,21.25,8.65,1.3,21.44,4.17,22,10.43C1401.76,822,1397.79,828,1387.34,828Z"/><path class="cls-47" d="M1424,1183.66a21.94,21.94,0,0,0-.28-2.33c-1.12-6.25-4.82-4.94-7.27-4.16-.45.15-2,.56-4.1,1.14-2.14-.58-3.64-1-4.09-1.14-2.44-.78-6.16-2.09-7.27,4.16a21.94,21.94,0,0,0-.28,2.33c-.54,8.91-.88,11.7-.88,11.7l12.52.05,12.53-.05S1424.5,1192.57,1424,1183.66Z"/><path class="cls-48" d="M1329.4,847.14S1305.76,960.45,1302,983.33s38.57,37.42,57.16,10.91,43.66-63.54,50.53-93.24,4.85-54-12.62-76.43S1335.74,816.61,1329.4,847.14Z"/><path class="cls-48" d="M1370.88,854.6s12.65,115.06,16.13,138,48.27,23.62,57.72-7.34,21.81-74,19.13-104.32-12.13-52.84-35.7-68.75S1367.44,823.61,1370.88,854.6Z"/><path class="cls-48" d="M1301.82,989c4.58,28,35.57,192.46,35.57,192.46s2.65,2.25,5.47,1.62c4.24-1,4.54-3.41,4.54-3.41s-2.37-24.36.39-40.86,13.28-118.88,14.32-139.29-5.28-35.78-28.51-35.06S1299.82,976.66,1301.82,989Z"/><path class="cls-48" d="M1386.07,986.85c2.06,28.33,4,28.33,7.54,62.51s13.05,132.7,13.05,132.7,2.43,2.49,5.3,2.11c4.3-.56,4.82-3,4.82-3s-.19-24.47,4-40.66,21.52-117.58,24.38-137.81-2.07-36.11-25.28-37.46S1385.17,974.43,1386.07,986.85Z"/><path class="cls-47" d="M1306.39,1186.52s34.4-8.85,36.91-9.64c2.77-.87,7.15-2.45,7.68,6.65s.85,12,.85,12-39.84.09-44.12-.39S1300,1191.37,1306.39,1186.52Z"/><path class="cls-49" d="M1312.22,883.73c-7.66,27.07-19.07,97.67-19.07,97.67s4.44,21.9,75.21,22.7,83.84-18.43,83.84-18.43,15.72-57.14,14.8-87.58.33-80.19-72.65-74.5S1321.09,852.35,1312.22,883.73Z"/><path class="cls-50" d="M1376.94,668c-1.46,0-2.93,0-4.47.11a142.34,142.34,0,0,0-23.93,3.49,49.62,49.62,0,0,0-7.62,2.21c-.37,7-5.69,26.84,13.47,24.84C1374.06,696.58,1377.92,674.62,1376.94,668Z"/><path class="cls-51" d="M1372.43,670.34c-2.48-19.55-8.46-30.85-17-45.75-6.55-4.63-14.06,6-24.54-4.1-3.47-3.33-6.67-.77-6.67,3.34a104.11,104.11,0,0,0,4.52,25.34c3.88,12.07,8.53,18.24,19.79,10.57a155.67,155.67,0,0,1-1.11,18.34c-1.54,10.69,5.6,14,10.72,14S1375,690.23,1372.43,670.34Z"/><path class="cls-49" d="M1339.25,677.74c-.38,10.92-8.76,34.48,16.33,29.37,29.48-6,27-32,26.1-37.1-1.57-8.72-9.48-7.51-20.16-6.09C1353.7,665,1339.58,668.49,1339.25,677.74Z"/><path class="cls-52" d="M1353.37,672.21c-36,5.43-37.53,37.87-37.22,65.06.76,65.9-4.72,146.05-4.72,146.05s15.26,9.33,72.91,5.39c74.86-5.14,83.64-17.05,83.64-17.05s-9.89-112.5-39.48-168.42c-8.55-16.14-21.2-32.89-51-33.12A143.44,143.44,0,0,0,1353.37,672.21Z"/><path class="cls-53" d="M1189.32,775.71c-2.21-2.8-8-11.8-6-13.12,5.84-3.76,16.85,6.45,21.22,12.46,3.22,4.43-1.21,6.58-1.21,6.58S1193.9,781.56,1189.32,775.71Z"/><path class="cls-53" d="M1299.33,828c-28.17,0-81.58-31-96.67-35.83-14.7,3.28-18.75-4.72-33.9-4.72-3.26,0-4.69-9.55,1.35-12.7,8.1-4.22,30.28-14.56,37.26,5.6,5.41,5.31,64.22,18.33,83.37,21.25,8.65,1.3,21.44,4.17,22,10.43C1313.75,822,1309.78,828,1299.33,828Z"/><path class="cls-53" d="M1329.62,795.7s-15.53,23.55-21.4,29.67c-4.19,4.4-9.83-1.92-13.34-5.75s.19-22.86,8.26-37.1C1309.32,771.61,1329.64,793.24,1329.62,795.7Z"/><path class="cls-54" d="M1348.53,768c-10.66,19.78-17.39,34.62-22.92,43.18,0,0-7.66,1.24-21.46-5.16-20.72-9.61-24.9-18.58-24.9-18.58s18.09-44.74,32.34-77.58c11.27-26,23.53-31.42,33.26-31.5C1363.86,678.2,1363.9,739.48,1348.53,768Z"/><path class="cls-49" d="M1498.93,706.86c-11.23-14.55-.53-31.27-17.46-51.33-10.47-12.41-28.68-17.74-44-22.71-42.91-13.86-31.69-52.49-78.91-54.45-14.29-.59-35.61,9.87-36.1,37.88-.2,11.91,9.12,11,18.22,14.18.17-.29.35-.58.55-.87,2.65-3.9,7-5.6,9.59-3.8s2.61,6.42,0,10.32c-.14.21-.29.41-.44.61,4.49,5.16,7.63,14,7.37,30.15-.13,7.95-4.74,16.17-4.52,24,1,33.4,38.23,37.5,34.36,59.74-12.64,72.54,33.48,76.27,72.33,60.68C1553.16,773.82,1514,726.37,1498.93,706.86Z"/><path class="cls-55" d="M212.67,1210.64s37.07,124.18,43.47,149.34-39.49,45.4-62.73,17.58-54.71-66.78-65.17-99.26-10.51-59.79,6.86-86.46S202.71,1177.17,212.67,1210.64Z"/><path class="cls-56" d="M300.65,1590.37s-38.52-9.91-41.33-10.79c-3.1-1-8-2.74-8.6,7.45s-.95,13.37-.95,13.37,44.6.1,49.41-.44S307.76,1595.81,300.65,1590.37Z"/><path class="cls-57" d="M264.67,1583.06s-2.31,3.13-5.55,3.16c-4.86,0-5.81-2.56-5.81-2.56s-3.63-27.16-10.84-44.45c-3.89-9.31-15.86-45.46-27.06-80.26l43.79-3.82C261.15,1502.69,264.67,1583.06,264.67,1583.06Z"/><path class="cls-58" d="M216,1344.75c25.52-5.12,40,4.75,40.9,18.66,2.15,31.73,0,32,1.44,70.49.22,5.68.51,13,.84,21.23L215.41,1459c-9.59-29.78-18.62-58.57-21.54-68.71C187.53,1368.27,190.51,1349.88,216,1344.75Z"/><path class="cls-59" d="M214.34,1469a1.48,1.48,0,0,0,1.52,1l45.54-4.69a1.33,1.33,0,0,0,1.17-1.32v-11.7a1,1,0,0,0-1.17-1.08l-49.5,4.86a1,1,0,0,0-.86,1.28Z"/><path class="cls-49" d="M155.25,1225.19s-1.17,143.4-1.92,168.82-49.41,32.11-63.81-.33S44.38,1296,51.38,1220.49C55.16,1179.67,154.89,1191,155.25,1225.19Z"/><path class="cls-56" d="M19.83,1574c-2-2.59-5-6.85-11.33,1.13S0,1585.47,0,1585.47s10.66,7.68,21.11,14.88H42C34.37,1592,21.09,1575.66,19.83,1574Z"/><path class="cls-56" d="M47.12,1590.66l-17.36-4.72L22,1600.35c10.8.09,21.37.11,23.57-.11C50.33,1599.75,54.17,1596.19,47.12,1590.66Z"/><path class="cls-57" d="M14.09,1577.82s13.5-23.84,18.19-42c2.85-11.09,18.25-56,31.67-94.08l42.86,22.1c-23.38,33.52-83.3,120.34-83.3,120.34s-3.73,1.1-6.33-.83C13.27,1580.49,14.09,1577.82,14.09,1577.82Z"/><path class="cls-49" d="M83.42,1387.73c8.2-21.34,21.68-34.21,45.12-22.91s29,27.9,21.35,39.56c-17.44,26.61-19.35,25.53-41.39,57.08-.54.76-1.11,1.57-1.69,2.41L64,1441.77C72.49,1417.53,80.23,1396,83.42,1387.73Z"/><path class="cls-60" d="M58.47,1445.59a1.5,1.5,0,0,0,.67,1.72l44.64,24.44a1.36,1.36,0,0,0,1.73-.41l6.65-9.63a1.08,1.08,0,0,0-.37-1.57l-48-26.54a1,1,0,0,0-1.43.56Z"/><path class="cls-57" d="M210.16,1108.14s21.51,23.13,26.62,31.13c3.67,5.74-4.7,10.19-9.79,13s-24.82-6.25-38.18-18.8C178.58,1123.84,207.5,1107.46,210.16,1108.14Z"/><path class="cls-61" d="M140.85,1047.81c29,16.36,82.18,66.08,82.18,66.08s-3.43,4.66-12.74,18.92c-16,24.54-24.55,28.16-24.55,28.16s-27.89-17.69-53.33-35.73c-17.29-12.26-30.25-30.44-31.14-54.76C100.64,1053.19,119.1,1035.55,140.85,1047.81Z"/><path class="cls-57" d="M278.68,1022.19c-1.41-3.74-4.81-15.65-1.83-16.76,7-2.62,5.43,5.22,13,10.91,4.91,3.67-1.55,19-1.55,19S281.58,1030,278.68,1022.19Z"/><path class="cls-57" d="M215,1129.79c11.52-29.36,65.68-84.17,69.21-98.59,2.3-9.37-6.22-14.24,3.85-29.61,4.87-7.44,29.08-3.1,30.09,5.75,2.32,20.26-7.21,28-21.3,30.44-6.53,5.43-39.93,75.1-50.81,93.87-4.9,8.47-13.82,21.65-20.6,19.72C214.67,1148.29,210.75,1140.68,215,1129.79Z"/><path class="cls-62" d="M112.82,1043.38c40.45-5.43,49.14,30,60.36,58.31,25.93,65.4,55.45,153.74,55.45,153.74s-10.3,21.45-81.42,30.39c-83.35,10.48-95.55-3.59-95.55-3.59s-13-115.86-11.76-174.5c.43-20.44,14.36-49.48,46.36-59.06C95.39,1046,102.85,1044.72,112.82,1043.38Z"/><path class="cls-49" d="M122.86,999.74c10.14-13.54,6.89-50.52-12.47-53.89-23.93-4.17-20.8,19.6-33.75,22.64-28.16,6.61-31.5,26.55-22.76,47.85,5.41,13.19,19.42,23.7,32.84,26.82,5.83,1.36.37-22.58,13-33.07S122.86,999.74,122.86,999.74Z"/><path class="cls-49" d="M129.45,1044c4.61,11.33,18.17,35.64-10.17,40C86,1089,72,1056.41,73,1052.18c2.39-9.63,16.47-7.52,24.9-8.69S125.53,1034.41,129.45,1044Z"/><path class="cls-57" d="M81.52,1049.73c1.57-.45,3.16-.88,4.83-1.28,9.28-2.19,16.79-3,26.82-3.72a56.18,56.18,0,0,1,8.89,0c2.59,7.45,14.5,27.08-6.72,30.92C93.55,1079.58,82.54,1057.17,81.52,1049.73Z"/><path class="cls-57" d="M84.82,1050.45c1.32-21.09-.68-32.82,1.78-51.87-.15-.65,27.27-2.73,30.75-17.76,0,0,6.18,16.89,7.35,31.89,1.1,14.15-1.09,22.52-16,19.36a126.78,126.78,0,0,0,7.23,19.74c5,11-1.63,16.83-7.14,18.42S83.41,1072.85,84.82,1050.45Z"/><path class="cls-49" d="M129.24,1080.09l-.72,12.72-9,3-11.63-13.07S120.92,1073.36,129.24,1080.09Z"/><path class="cls-49" d="M126.77,1088.68l49.35,116.88a27.64,27.64,0,0,1,1.72,11.5l-4.47,43.74c-.34,3.28-2.3,3.86-4.36,1.28l-26.59-33.28a26.45,26.45,0,0,1-4.63-10.63l-18.36-123.45a38.65,38.65,0,0,1-.21-9.86Z"/><path class="cls-63" d="M90.74,1006.64a40.72,40.72,0,0,1,1,12.66c-.41,6.13-.71,8.14-.71,8.14s12.79,8.24,22.89,7.09,14.19-8.31,13.78-15.22c-.5-8.48-.81-10.78-4.35-20.25C123.35,999.06,115.68,1006.67,90.74,1006.64Z"/><path class="cls-25" d="M112.53,1010.79a57.32,57.32,0,0,0,13.26-4.66c-.06-.21-.13-.43-.19-.65a54.84,54.84,0,0,1-29,5.69.34.34,0,1,0-.06.67A54,54,0,0,0,112.53,1010.79Zm7.13,5.16a67.93,67.93,0,0,0,7.64-2.11c0-.23,0-.45-.07-.68-6.14,2.09-18.35,5.25-30.68,2.54a.32.32,0,0,0-.39.25.33.33,0,0,0,.25.4A55.15,55.15,0,0,0,119.66,1016Zm-23.37,4.91c10.78,4.49,24.84,2.95,31.22,1.89,0-.24.08-.46.11-.7-6.2,1.05-20.32,2.67-31.07-1.81a.34.34,0,0,0-.26.62Zm-.13,4.48c6.65,4.88,17.64,6.29,25.35,6.64.31-.2.6-.42.89-.63-7.64-.28-19.07-1.58-25.85-6.55a.34.34,0,0,0-.47.07A.34.34,0,0,0,96.16,1025.34Z"/><path class="cls-64" d="M92.45,1027.89l.36-2.37C85,1024.35,83,1022,83,1014.26c0-2.21.38-5.06,2.21-6.16,2.19-1.32,5.54.2,6.88.92l1.12-2.12c-2.11-1.13-6.11-2.73-9.24-.86-2.24,1.35-3.37,4.11-3.37,8.22C80.58,1023.23,83.46,1026.54,92.45,1027.89Z"/><path class="cls-57" d="M73.17,1011.69c-1.17,3.73,2.37,8.16,7.9,9.89s7.85-.29,9-4,.75-7.79-4.79-9.52S74.33,1008,73.17,1011.69Z"/><rect class="cls-12" x="198.7" y="529.2" width="202.7" height="108.74"/><path class="cls-13" d="M462.05,498.37H427A25.71,25.71,0,0,0,401.4,524V643.13A25.71,25.71,0,0,0,427,668.77h35a4.43,4.43,0,0,0,4.41-4.41V502.78A4.42,4.42,0,0,0,462.05,498.37Z"/><rect class="cls-65" x="441.9" y="498.37" width="14.7" height="170.4"/><path class="cls-13" d="M138.05,498.37h35A25.72,25.72,0,0,1,198.7,524V643.13a25.72,25.72,0,0,1-25.64,25.64h-35a4.42,4.42,0,0,1-4.41-4.41V502.78A4.42,4.42,0,0,1,138.05,498.37Z"/><rect class="cls-65" x="143.5" y="498.37" width="14.7" height="170.4"/><rect class="cls-66" x="198.7" y="529.2" width="78.3" height="108.74"/><rect class="cls-67" x="323.1" y="529.2" width="78.3" height="108.74"/><path class="cls-12" d="M292.52,637.94V1283.7a6,6,0,0,0,6,6h3.05a6,6,0,0,0,6-6V637.94Z"/><path class="cls-57" d="M281.76,1171.75c2.4-3.19,10.64-12.44,13.17-10.52,6,4.54-1.5,7.38-2.23,16.84-.47,6.12-16.91,8.9-16.91,8.9S276.74,1178.38,281.76,1171.75Z"/><path class="cls-57" d="M156.8,1175.66c31-6,106.26,10.36,120.33,5.61,9.14-3.08,8.69-12.88,27.06-12.61,8.9.12,18.21,22.88,11.27,28.48-15.86,12.81-27.48,8.9-37.11-1.67-8.09-2.6-84.81,6.53-106.48,7.4-9.78.4-24.46,0-26.46-6.78C142.23,1185.33,145.31,1177.9,156.8,1175.66Z"/><path class="cls-57" d="M146.16,1153.89s16.25,27.08,19.59,36c2.41,6.37-6.7,9-12.27,10.68s-23-11.26-33.46-26.31C112,1162.71,143.7,1152.67,146.16,1153.89Z"/><path class="cls-68" d="M87.52,1081c25,22,72.33,84.45,72.33,84.45s-2.46,8.34-15.6,19.17c-19.75,16.26-30.83,16.13-30.83,16.13s-27.6-25.94-48.75-48.85c-14.37-15.58-20-22.66-17.2-48C50.35,1077.65,68.79,1064.48,87.52,1081Z"/><rect class="cls-69" x="292.52" y="637.94" width="15.05" height="177.11"/><path class="cls-70" d="M1973.85,1222.21s28.73,141,34.35,165.89,54.83,22.12,62.78-12.6,22.49-91.42,11-177.83C2076.53,1156.9,1967.63,1188.47,1973.85,1222.21Z"/><path class="cls-71" d="M2067.82,1417.34c3.1-22.25,3.56-68.85-22-70.29s-42.3,15.68-42,20.22c1.67,23,9.66,94.81,17.17,150h31.8C2058.57,1484.88,2065.47,1434.14,2067.82,1417.34Z"/><path class="cls-57" d="M2051.83,1517.28h-29.28c5.23,37.2,9.5,68.22,9.5,68.22s.78,1.53,5.48.81,5.32-3.58,5.32-3.58-.25-24.86,4.35-42.68C2048.34,1535.68,2050,1526.88,2051.83,1517.28Z"/><path class="cls-56" d="M2012.41,1586.48c13.29-4.7,22.83-6.09,25.64-7,3.12-1,8-2.75,8.63,7.47s1,13.43,1,13.43-36.71.1-41.53-.45S2004.58,1589.26,2012.41,1586.48Z"/><path class="cls-49" d="M1908.64,1213.93s2.26,130,3.78,156,51.56,31.42,65.33-2.24,32-80.48,32.19-114.72-8.11-60.37-32.82-80.61S1908,1178.9,1908.64,1213.93Z"/><path class="cls-49" d="M1953.05,1342.9c-25.76-4.31-39.91,6.07-40.41,20-1.12,31.9,1.08,32.35.86,71-.1,18.09-1.64,52.17-2,83.37h30.07c11.77-39.6,30.69-111.7,35.15-129.25C1982.4,1365.79,1978.81,1347.22,1953.05,1342.9Z"/><path class="cls-57" d="M1912,1583.71s2.42,3,5.67,2.88c4.87-.1,5.75-2.82,5.75-2.82s2.74-27.16,9.41-44.73c1.41-3.71,3.94-12.16,7.09-21.76h-27.2C1912.38,1552.08,1912,1583.71,1912,1583.71Z"/><path class="cls-56" d="M1892.69,1586.48c13.28-4.7,22.82-6.09,25.64-7,3.11-1,8-2.75,8.63,7.47s1,13.43,1,13.43-36.7.1-41.52-.45S1884.85,1589.26,1892.69,1586.48Z"/><path class="cls-57" d="M1979.35,1142.54c-27.56-5.56-93.31-4.66-116.56-4.66l-1,12.2c20.09,2,80.82,15.39,99.75,18.09,9.73,1.4,24.42,2.46,27.1-4.08C1992.92,1153.67,1990.86,1144.86,1979.35,1142.54Z"/><path class="cls-57" d="M1860.16,1137.92c.87-3.9,3.44-17.35-.53-16.9-7.49.86-4.67,6-11.42,12.66-4.36,4.34,4,16.29,4,16.29A20.16,20.16,0,0,0,1860.16,1137.92Z"/><path class="cls-57" d="M1866.82,1138.16c-16.55,0-12,1.38-20.51-15-4.15-7.91-31.13-3.4-31.13,5.54,0,16.73,3.07,23,17.36,24.36,11,1.07,23.57-4.12,31.25-2.81C1863.79,1150.3,1867.72,1138.16,1866.82,1138.16Z"/><path class="cls-49" d="M1929.46,1132.1a4.62,4.62,0,0,1-4.75,6H1801.93a8.28,8.28,0,0,1-7.68-6l-21.2-87.57a4.68,4.68,0,0,1,4.75-6h122.78a8.33,8.33,0,0,1,7.68,6Z"/><path class="cls-72" d="M1908.26,1044.52a8.3,8.3,0,0,0-7.68-6H1777.8a4.67,4.67,0,0,0-4.75,6l21.2,87.56h135.21Z"/><path class="cls-73" d="M1799.66,1132.1l-21.21-87.57a4.68,4.68,0,0,1,4.75-6h-5.4a4.71,4.71,0,0,0-4.75,6.08l21.2,87.52a8.3,8.3,0,0,0,7.68,6h5.4A8.26,8.26,0,0,1,1799.66,1132.1Z"/><g class="cls-74"><path class="cls-75" d="M1805.83,1127.28a3.17,3.17,0,0,1-3-2.3l-19.21-79.35a1.82,1.82,0,0,1,1.83-2.35h115.13a3.27,3.27,0,0,1,3,2.37L1922.8,1125a1.8,1.8,0,0,1-1.84,2.32Z"/></g><g class="cls-76"><path class="cls-77" d="M1805.83,1127.28a3.17,3.17,0,0,1-3-2.3l-19.21-79.35a1.82,1.82,0,0,1,1.83-2.35h115.13a3.27,3.27,0,0,1,3,2.37L1922.8,1125a1.8,1.8,0,0,1-1.84,2.32Z"/></g><path class="cls-49" d="M1990.57,1138.08a2.15,2.15,0,0,0,2.24-2.14v-1.58a2.27,2.27,0,0,0-2.24-2.28H1802.4c-1.24,0-1.59,1-1.59,2.28v1.58c0,1.24.35,2.14,1.59,2.14Z"/><path class="cls-78" d="M1990.57,1132.08h-120.9c1.24,0,3.14,1,3.14,2.28v1.58c0,1.24-1.9,2.14-3.14,2.14h120.9a2.15,2.15,0,0,0,2.24-2.14v-1.58A2.27,2.27,0,0,0,1990.57,1132.08Z"/><path class="cls-57" d="M2014.08,1006.06c-5.47-23.71-9.5-27.08-16.31-45.1,0-.67-27.26,3.66-34.14-10.21,0,0-2.11,17.92.22,32.83,2.2,14.08,6.28,21.74,20.12,15.2-.1,6.86,2.06,14.7,1.9,20.72-.3,12.13,8.1,14.91,13.82,14.22S2019.14,1028,2014.08,1006.06Z"/><path class="cls-49" d="M1971.83,1011.08c-3.3,11.82-14,37.61,14.72,38.65,33.77,1.24,44-32.9,42.48-37-3.48-9.33-17.28-5.61-25.81-5.81S1974.63,1001.06,1971.83,1011.08Z"/><path class="cls-79" d="M1976.32,1011.84c-30.14-.67-37.13,12.2-42.66,42.25-14,76.29-24.37,135.71-29.72,174.33,1.8,10.5,17.83,26.85,82.71,28.9,84.26,2.66,102.16-11.38,102.16-11.38s-6.23-135.7-26-196c-9.62-29.36-26-34.13-59.33-37.74C1994,1011.18,1986.42,1012.06,1976.32,1011.84Z"/><path class="cls-49" d="M1962.8,963.69c-13.91-1.9-19.27-46.29,2.79-49.31,29.19-4,17.26,18.86,30.59,18.18,39.06-2,43.35,13.34,37.41,35-4.76,17.34-11.71,29.19-26.31,28.63-6-.23-14.72,3.19-20.6-20.85C1983,960.26,1975.84,965.47,1962.8,963.69Z"/><path class="cls-80" d="M1795.44,995.32c-2.47-3.15-10.84-12.18-13.4-10.3-4.87,3.57,1,7.47,2.54,16.86,1.46,8.6,13.5,10.69,13.5,10.69S1800.61,1001.88,1795.44,995.32Z"/><path class="cls-80" d="M1873.48,1114.42c-9.69-30.12-65-95.6-67.61-110.27-1.71-9.52,8.87-14.64-7.35-29.39-6.62-6-27.66-5.9-26.17.86,1.25,5.68,9.4,1,16.82,9.73,2.75,3.24-1,14.7,3.63,24.6,3.62,7.71,35.28,77.72,45,97.19,6.93,15,14.14,23.53,21.09,22.26C1868.77,1127.59,1877.08,1125.61,1873.48,1114.42Z"/><path class="cls-80" d="M1871.41,1083.69s-19.68,24.84-24.16,33.26c-3.21,6,5.51,9.81,10.83,12.21s24.33-8.22,36.7-21.84C1904.25,1096.89,1874,1082.8,1871.41,1083.69Z"/><path class="cls-81" d="M1948.13,1019.13c-26.21,16.14-87.22,70.21-87.22,70.21s-1.49,11.29,10.18,23.77c17.55,18.74,26.83,21.43,26.83,21.43s18.78-13.33,43-33.18c11.82-9.71,19.61-13,23.76-48.5C1967,1032.65,1966.5,1007.82,1948.13,1019.13Z"/><path class="cls-82" d="M1977.19,975.74a83,83,0,0,1-14.41,3.67c.26,4.09,1.64,17.44,8.22,21.24a7.16,7.16,0,0,0,3.51,1,52,52,0,0,0,8.47-8.18s-.83-1.62-3-6.69A36.69,36.69,0,0,1,1977.19,975.74Z"/><path class="cls-25" d="M1974,981.42a.31.31,0,0,0-.39-.16,47.34,47.34,0,0,1-10.24,3.18q0,.28.09.6a48.53,48.53,0,0,0,10.39-3.22A.3.3,0,0,0,1974,981.42Zm1.35,3.77a.29.29,0,0,0-.41-.09,43.46,43.46,0,0,1-10.52,4.52c0,.19.11.38.16.57a43.89,43.89,0,0,0,10.67-4.58A.31.31,0,0,0,1975.31,985.19Zm2.65,7.54a.3.3,0,0,0-.42.07,27.66,27.66,0,0,1-7.73,7c.16.13.32.26.49.38a27.92,27.92,0,0,0,7.74-7A.3.3,0,0,0,1978,992.73Zm-1.31-3.77a.31.31,0,0,0-.43,0,37,37,0,0,1-9.92,6c.08.18.17.36.26.53a37.33,37.33,0,0,0,10.06-6.13A.3.3,0,0,0,1976.65,989Z"/><path class="cls-83" d="M1982,994.45l-1.42-1.94c7.24-5.32,15-12.91,10.68-18.88-2-2.76-4-4.09-6-3.94-2.66.19-5.65,3.1-8.2,8l-2.13-1.11c1.73-3.32,5.35-8.94,10.16-9.28,2.87-.19,5.58,1.46,8.08,4.94C1996.2,976.4,1996.69,983.64,1982,994.45Z"/><path class="cls-57" d="M1995.43,968.36c2.9,2.65,2.08,8.27-1.83,12.57s-9.45,5.63-12.35,3-2.09-8.27,1.83-12.57S1992.52,965.72,1995.43,968.36Z"/></g></g></g></svg>