<svg xmlns="http://www.w3.org/2000/svg" viewBox="0 0 526.71 601.82"><defs><style>.cls-1{fill:#ffeaf6;}.cls-2{fill:#ccc;}.cls-3{fill:#81cfe1;}.cls-4{fill:#ffe1b8;}.cls-5{fill:#19273e;}.cls-6{fill:#ff9626;}.cls-7{fill:#f4645d;}.cls-8{fill:#f8615d;}.cls-9{fill:#fd8381;}.cls-10{fill:#ed514e;}.cls-11{fill:#bd3835;}.cls-12{fill:#1a283f;}.cls-13{fill:#ffb696;}.cls-14{fill:#fd908e;}.cls-15{fill:#4d8794;}.cls-16{fill:#c2eef2;}.cls-17{fill:#fff;}.cls-18{fill:#e6e6e6;}.cls-19{fill:#ffa882;}.cls-20{fill:#d1805c;}.cls-21{fill:#ffccb5;}.cls-22{fill:#ffa782;}</style></defs><g id="Layer_2" data-name="Layer 2"><g id="Layer_1-2" data-name="Layer 1"><path class="cls-1" d="M441.57,532.76s-42.87-22.35,0-118.93,103.8-230,79.66-326.55S394.37-25.13,333.62,36.83,205.89,92.34,140.49,55.32,9.16,58.23,12.81,161.86,140,306.38,45.48,388.85s-21,143.91,35,143.91Z"/><path class="cls-2" d="M506,553H20.69a10.17,10.17,0,0,1-10.17-10.18h0a10.17,10.17,0,0,1,10.17-10.18H506a10.18,10.18,0,0,1,10.18,10.18h0A10.18,10.18,0,0,1,506,553Z"/><path class="cls-3" d="M383.43,462.85H491.69a3.14,3.14,0,0,1,3.14,3.14v9.73a3.14,3.14,0,0,1-3.14,3.14H383.43a0,0,0,0,1,0,0v-16A0,0,0,0,1,383.43,462.85Z"/><path class="cls-4" d="M383.43,466.08H489.69a1.48,1.48,0,0,1,1.48,1.48v6.62a1.48,1.48,0,0,1-1.48,1.48H383.43a0,0,0,0,1,0,0v-9.57A0,0,0,0,1,383.43,466.08Z"/><path class="cls-5" d="M374,478.87h104a7.07,7.07,0,0,1,7.07,7.07v10.24a7.07,7.07,0,0,1-7.07,7.07H374a0,0,0,0,1,0,0V478.87A0,0,0,0,1,374,478.87Z"/><path class="cls-4" d="M374,482.33H475.21a5.07,5.07,0,0,1,5.07,5.07v7.34a5.07,5.07,0,0,1-5.07,5.07H374a0,0,0,0,1,0,0V482.33A0,0,0,0,1,374,482.33Z"/><path class="cls-6" d="M399.81,503.27H501.59A3.44,3.44,0,0,1,505,506.7v6.24a3.44,3.44,0,0,1-3.44,3.44H399.81a0,0,0,0,1,0,0V503.27A0,0,0,0,1,399.81,503.27Z"/><path class="cls-7" d="M373.47,516.37H485a0,0,0,0,1,0,0v15.19a0,0,0,0,1,0,0H373.47a4.61,4.61,0,0,1-4.61-4.61v-6A4.61,4.61,0,0,1,373.47,516.37Z"/><path class="cls-8" d="M268.94,259.61c-6.58-14.62-2.49-42.1-.22-75.38s-13.36-63.54-24.11-66.4c-5.12-7.47-18.19-11.78-38.67-1.17s-38,34.4-40.34,81.94c-1,20.67,11.85,44.37,5.8,61Z"/><path class="cls-9" d="M193.94,135.71c-5.55,5-8.62,12.33-11.49,19.06a122,122,0,0,0-6.71,20.31A102.22,102.22,0,0,0,173,197.65c0,7.37,1.38,14.29,2.42,21.54a2,2,0,0,1-3.83,1.05c-5.27-14.49-3.25-32.54.78-47.07a116.77,116.77,0,0,1,8.33-21.39c3.21-6.35,6.7-12.78,12.55-17C193.76,134.34,194.44,135.25,193.94,135.71Zm-16,93.85-.78-3.5a1.79,1.79,0,0,0-2.19-1.24,1.81,1.81,0,0,0-1.24,2.18l.63,3.55a1.86,1.86,0,0,0,2.28,1.29A1.88,1.88,0,0,0,177.92,229.56Zm57.77-86.71a41.11,41.11,0,0,1-24.06,8c-1.93,0-1.92,3.08,0,3a41.59,41.59,0,0,0,25.12-9.61C237.5,143.6,236.5,142.27,235.69,142.85Zm-30.88,8.3a1.33,1.33,0,0,0,0,2.65A1.33,1.33,0,0,0,204.81,151.15Zm54.81-.93a.55.55,0,0,0-1.06.29c2.86,9.83,3.35,20.23,2.65,30.4-.67,9.73-3.12,19.61-2.42,29.4a1.76,1.76,0,0,0,3.52,0c.66-10.43,2.23-21,2.26-31.42C264.6,169,262.43,159.63,259.62,150.22Z"/><path class="cls-10" d="M245.34,144s9.39,26,4.11,55.13,5.63,45.75,5.63,45.75l-63.14-3s13.33-24.85,14.15-40.6S244.69,159.72,245.34,144Z"/><path class="cls-11" d="M246.09,539c21.19,4.66,71.14-2.12,97.85-20.34s60.67-60.82,60.67-60.82S256.62,529.59,246.09,539Z"/><path class="cls-12" d="M246.09,532.58c6.23,7.42,6.78,4.41,6.78,4.41s33.27,9.72,43.87,23.85,19.43,7.51,19.43,7.51-3.53-26.06-7.95-35.77-27.09-17.23-27.09-17.23Z"/><path class="cls-7" d="M153.72,431.85c-19.06-5.94-49.06-12.56-86-6.07s-53.85,15.39-56,25.55S8,482.69,26.19,492.86s116.09,56.77,182.19,36c13.14,21.19,20.76,22.88,20.76,22.88s64.83-33,107.2-53.39,63.55-36,74.57-45.75S427,433.22,424,422.36s-8.47-29.5-20.76-30.34-85.16,16.63-110.16,30.34S153.72,431.85,153.72,431.85Z"/><path class="cls-12" d="M207,531.63s-9.62-7-13.66-7c-11.66,15.26-13.36,19.07-21.83,21.61s-11,5.51-11,5.51-16.94,32.63-14.4,47.88c10.17,5.93,13.13-1.27,17.37-8.47S208.38,559,208.38,559Z"/><path class="cls-13" d="M208.38,528.87s4.17,6.71,8.05,11.59a64,64,0,0,0,7.53,8L208.38,559S201.18,540.73,208.38,528.87Z"/><path class="cls-10" d="M125.16,465.93s44.39,21.31,59.87,26.66,34.18,11.32,34.18,11.32l22-13.14S175.64,488.24,125.16,465.93Z"/><path class="cls-14" d="M218.9,505c-.54-.16-54.53-16.36-82.93-32.14-31.23-17.35-58.33-24.5-76.28-20.1l-.52-2.14c18.5-4.52,46.15,2.7,77.87,20.32,28.19,15.67,82,31.79,82.49,31.95Z"/><path class="cls-14" d="M207.47,529.48a62.93,62.93,0,0,1-7.34-14.69l-.26-.84.76-.44c.57-.33,57.33-33.15,73.62-45.26a339.09,339.09,0,0,1,43.36-27.51c23.32-12.25,44-18.81,61.48-19.47l.08,2.19c-39,1.49-85.46,33.05-103.61,46.55-15.33,11.4-66.11,40.93-73.05,45a64.55,64.55,0,0,0,6.79,13.3Z"/><path class="cls-9" d="M119.8,431.25a210.71,210.71,0,0,0-76.86,8.09c-.49.15-.66-.57-.21-.75a167.91,167.91,0,0,1,77.07-10.83C122,428,122.05,431.43,119.8,431.25Zm47,59.66c-25.69-2.45-44-22.54-68.06-29.53-1.36-.39-1.88,1.63-.58,2.09,23.63,8.39,42.74,29.18,68.64,31.07C169.18,494.71,169.14,491.13,166.84,490.91Zm12,8.23a26,26,0,0,1-6-2c-1.8-.83-.23-3.44,1.55-2.65a33.35,33.35,0,0,0,5.27,1.69C181.61,496.64,180.76,499.5,178.82,499.14Zm151.43-59.65c-12.93,6.44-25,15.49-37.27,23.08-12.44,7.68-24.84,15.39-37.43,22.82a1.15,1.15,0,0,0,1.15,2c12.63-7.35,25.34-14.57,37.92-22,12.41-7.32,26-14,37.49-22.71A1.85,1.85,0,0,0,330.25,439.49Zm13-1a1.5,1.5,0,0,0-1.82-1l-3.11,1.29a1.48,1.48,0,0,0-1,1.77,1.44,1.44,0,0,0,1.76,1l3.14-1.21A1.53,1.53,0,0,0,343.23,438.49Z"/><path class="cls-3" d="M198.45,238.94c-26.71,2.19-49.17,6.6-74.72,36.55S96,309.4,96,309.4s55.5,16.3,59.46,41c-4,51.09-4,83.68-4,83.68s32.15,28.19,75.75,26.87,85-33,85-33-8.81-17.18-11.45-52.42-3.53-57.69-3.53-57.69l7.49,12a142.62,142.62,0,0,1,29.09-27.18s-39-68.66-102.18-63.61C216.22,238.05,198.45,238.94,198.45,238.94Z"/><path class="cls-15" d="M297.26,317.77l-9-15.22S286.76,321.77,297.26,317.77Z"/><path class="cls-15" d="M137.36,328.16,149,310.43S148.78,325.09,137.36,328.16Z"/><path class="cls-16" d="M175.13,247c-25.44,12.89-45,32.81-59.76,56.91a1.85,1.85,0,0,1-3.2-1.87c13.19-25.31,36.25-45.1,62-56.66C175.27,244.9,176.22,246.45,175.13,247ZM109,306.64a1.77,1.77,0,0,0,0,3.53A1.77,1.77,0,0,0,109,306.64ZM231.24,254c-9.55,3.87-20.12,1.16-25.84-7.71a.67.67,0,0,0-1.16.68c5.63,10.41,17.14,14.48,28.07,9.57C233.73,255.87,232.71,253.37,231.24,254Zm7.14-3.19-.82.51c-1.29.8-.12,2.82,1.18,2l.83-.49C240.88,252,239.67,250,238.38,250.77ZM305,319.46a163.13,163.13,0,0,0-11.2-19.39c-.74-1.09-2.51-.08-1.78,1a164.71,164.71,0,0,1,10.83,19.6C303.54,322.16,305.72,320.9,305,319.46Z"/><path class="cls-17" d="M155.84,286.52c2.12,8.47,7.89,32.63,8.87,45,1.3,16.47,3.42,97.4,3.42,97.4s95.33,11.44,121.18-10.59c-7.21-54.66-8.9-73.73-9.75-86.44s1.7-53,1.7-53S193.72,290.76,155.84,286.52Z"/><path class="cls-18" d="M279.56,331.85c-.85-12.71,1.7-53,1.7-53s-14.17,1.92-33.57,3.94c-.11,37.72-9.83,103-55.67,148.09,30,1.85,79.71,2.35,97.29-12.63C282.1,363.63,280.41,344.56,279.56,331.85Z"/><path class="cls-13" d="M383,394.72l.12-.32-.06-.07a7.29,7.29,0,0,0-.5-3.53C378,379,353.93,333.05,333.84,302.55c0,0-19.43,10-29.09,27.18,0,0,3.43,5.78,8.5,14.07a130.44,130.44,0,0,1-12.08-8.14c-11.86-9.74-16.95-16.52-16.95-16.52h-5.51l-24.15,1.71s-3.81,8.88,0,15.66,17.8,9.32,17.8,9.32,12.21,9,19.49,7.44c16.95,14.6,32.23,34.38,44.91,48.07,15.61,16.84,36,19.45,45.51-4.6A6.17,6.17,0,0,0,383,394.72Z"/><path class="cls-19" d="M337.79,358.93c-9.29-14.4-18.78-31.36-21.29-43.81a62,62,0,0,0-11.75,14.61s3.43,5.78,8.5,14.07C320.13,348.09,328.79,353.28,337.79,358.93Z"/><path class="cls-20" d="M337.79,358.93c19.63,11.94,25.87,17.48,25.87,17.48C363.52,370.45,358.21,365,337.79,358.93Z"/><path class="cls-21" d="M355.74,376.18a308.23,308.23,0,0,1-41.57-27.35c-.7-.53-.06-1.73.71-1.21a491.12,491.12,0,0,0,42.66,25.49C359.55,374.2,357.76,377.27,355.74,376.18Zm8.58,3.79-.87-.28a1.59,1.59,0,0,0-1.94,1.1,1.62,1.62,0,0,0,1.1,1.95l.86.31a1.6,1.6,0,1,0,.85-3.08Z"/><path class="cls-21" d="M327.35,309.69a13,13,0,0,0-4.71,4.14c-.75,1,.94,2.31,1.72,1.33a17.26,17.26,0,0,1,4.13-3.53A1.13,1.13,0,0,0,327.35,309.69Z"/><path class="cls-13" d="M189.27,320.85c-10,7.31-24.56,10.63-24.56,10.63l-.84-5.37-10.12,3.37-8.3,20.27S129.65,358,112.73,365c10.12-14.58,19.23-28.5,24.63-36.86C123,318.57,111.65,314.45,96,309.4c-17.93,23.07-34.86,57.6-40.5,73.87a78.34,78.34,0,0,0-4.19,22.55l0,0c-.88,18.26,8.52,22.58,26.12,18.6,30.87-9.63,56.11-38.85,76.85-57.36,0,0,20.09-8.38,31.71-15S192.93,325.83,189.27,320.85Z"/><path class="cls-19" d="M122.94,320c-5.78,13.47-14.49,32.63-24,50.53,2.76-1.15,5.45-2.21,8-3.2,1.93-.74,3.86-1.52,5.79-2.31,10.12-14.58,19.23-28.5,24.63-36.86A122.25,122.25,0,0,0,122.94,320Z"/><path class="cls-20" d="M98.94,370.53a297.69,297.69,0,0,0-28.48,13.18S71.65,371.57,98.94,370.53Z"/><path class="cls-21" d="M94.5,319.92c-17.68,23.46-33.23,51.79-38,81.17-.34,2.09,2.65,3,3.24.89,4.11-14.73,7.91-29.16,14.11-43.21a202.68,202.68,0,0,1,21.93-38.08C96.4,319.89,95.08,319.15,94.5,319.92Z"/><path class="cls-21" d="M138.82,355.24c-17.69,10.14-36.33,18.52-54.73,27.23-1.61.76-.46,3.56,1.22,2.9,19.21-7.5,36.86-18,53.93-29.4A.42.42,0,0,0,138.82,355.24Z"/><path class="cls-21" d="M79.07,387a1.65,1.65,0,0,0-2.22-.58c-.59.26-1.16.56-1.73.86a1.63,1.63,0,1,0,1.65,2.81c.58-.28,1.16-.55,1.72-.87A1.65,1.65,0,0,0,79.07,387Z"/><path class="cls-13" d="M211.93,216.58a91.39,91.39,0,0,1-7.19,22.76c9.51,18.65,31.82,12.78,34.75-.39-4.34-3.92-6.93-14.14-8.36-22.3A22,22,0,0,1,211.93,216.58Z"/><path class="cls-20" d="M232.69,224.11c-.62-2.53-1.14-5.08-1.56-7.46a22,22,0,0,1-19.2-.07c-.44,2.5-1,5.19-1.79,7.94C214.87,229.43,222.36,232,232.69,224.11Z"/><path class="cls-13" d="M199,161.8a7.72,7.72,0,0,0-7,7.65c-.09,13.09.28,32.71,14.28,43.6,17.82,13.87,34.39-.31,39.11-10.21,7.31-15.37,3.29-48.29,0-58.89C235.62,156.91,211.13,160.7,199,161.8Z"/><path class="cls-21" d="M212.46,212.8c-17-4.53-18.44-28.31-17-42.47.07-.7,1.12-.73,1.12,0,0,13.61,1.77,34.07,16.69,39.54C215.08,210.53,214.37,213.31,212.46,212.8Zm7.66-1.44c-.71-.08-1.43-.11-2.14-.16a1.9,1.9,0,0,0-.51,3.73c.88.12,1.76.26,2.65.33a2,2,0,0,0,1.95-1.95A2,2,0,0,0,220.12,211.36Z"/><path class="cls-22" d="M245.34,144c-9.72,13-34.21,16.75-46.35,17.85,12.16,1.71,27.6-1.1,33.7-3.5s5.31,10.22,5.51,18.43c1.94,3,3.31,24.52-4.44,38.53a30.94,30.94,0,0,0,11.58-12.42C252.65,187.47,248.63,154.55,245.34,144Z"/></g></g></svg>