<svg xmlns="http://www.w3.org/2000/svg" viewBox="0 0 426.22 240.38"><defs><style>.cls-1{fill:#010101;}.cls-2{fill:#020202;}.cls-3{fill:#f7f7f7;}.cls-4{fill:#fefefe;}.cls-5{fill:#f4f4f4;}.cls-6{fill:#111;}.cls-7{fill:#e9e9e9;}.cls-8{fill:#dedede;}.cls-9{fill:#f4f2f0;}.cls-10{fill:#f4f3f4;}.cls-11{fill:#ededed;}.cls-12{fill:#080808;}.cls-13{fill:#090909;}.cls-14{fill:#f68a8c;}.cls-15{fill:#070004;}.cls-16{fill:#f58684;}.cls-17{fill:#e88c86;}.cls-18{fill:#4e2a26;}.cls-19{fill:#0d0005;}.cls-20{fill:#0e0508;}.cls-21{fill:#0d0509;}.cls-22{fill:#f8f6f6;}.cls-23{fill:#f28686;}.cls-24{fill:#f8f8f8;}.cls-25{fill:#6b6b6b;}.cls-26{fill:#222;}.cls-27{fill:#f5f5f5;}.cls-28{fill:#f2f2f2;}.cls-29{fill:#999;}.cls-30{fill:#f3f3f3;}.cls-31{fill:#505050;}.cls-32{fill:#f6f6f6;}.cls-33{fill:#f68b8d;}.cls-34{fill:#f68c8e;}.cls-35{fill:#f88c8f;}.cls-36{fill:#f58e8f;}.cls-37{fill:#f48e8d;}.cls-38{fill:#f99193;}.cls-39{fill:#f1fcfa;}.cls-40{fill:#fc8a8e;}.cls-41{fill:#f58a8b;}.cls-42{fill:#ec8d87;}.cls-43{fill:#f59196;}.cls-44{fill:#fa7d82;}.cls-45{fill:#fa8585;}</style></defs><g id="Layer_2" data-name="Layer 2"><g id="Layer_1-2" data-name="Layer 1"><path class="cls-1" d="M69.52,184.93c5.56-5.24,12.42-7.72,19.77-8.85,3-.47,4-1.55,4.35-4.73,2.21-21,7-41.35,16.63-60.32a13,13,0,0,0,1.22-5.79c.65-22.53,2.63-44.88,9.51-66.51,3.59-11.27,8.18-22.07,16.22-31,4.11-4.57,6.25-4.79,11.22-1.06,4.77,3.57,8.41,8.21,11.89,13,7.82,10.73,14.34,22.25,20.56,33.94,1.1,2.07,2.06,2.67,4.55,2.36a222.86,222.86,0,0,1,55.23,0c2.28.28,3.24-.18,4.3-2.16,7.25-13.57,14.74-27,24.46-39A39.65,39.65,0,0,1,278,6.31c5-3.32,6.71-3.17,10.61,1.21,6.88,7.72,11.29,16.85,14.72,26.49,8,22.59,10.31,46.11,11.05,69.85a18.24,18.24,0,0,0,2,8,140,140,0,0,1,10.89,29.67c.51,2,1.26,2.79,3.33,3.19,6,1.16,10.84,4,12.13,10.57.29,1.5,1.15,1.54,2.25,1.62,6.91.47,11.28,4.59,14.17,10.38a42.48,42.48,0,0,1,4.56,18.92c.69,8.52.24,17-.14,25.54a2.23,2.23,0,0,1-1.06.69c-1.45-.53-3.38.18-4.37-1.63-.94-4-.37-8-.45-12a143.45,143.45,0,0,0-.73-14.79c-.83-6.7-3-12.71-7.38-17.86a5,5,0,0,0-4-2.14,14.4,14.4,0,0,0-1.6-.14c-6.87.16-6.93.16-8-6.79-.42-2.78-2.26-4.08-4.53-5.07-3.1-1.43-6.09-.34-9.09.36-1.74-1.2-3.71-2.07-5.16-3.7-2.95-5.26-4.25-11.22-7.4-16.45-5.8-9.63-13.4-17-24.1-20.82a7.9,7.9,0,0,1-5.52-5.76c-1.78-6.5-6.1-10.93-12.31-13.37a33.75,33.75,0,0,0-17.68-2.38c-2.39.37-4.49.32-6-2-1.13-1.69-2.89-1.8-4.68-1.2a16.16,16.16,0,0,0-9.66,8.54c-1.1,2.27-.58,3.86,1.87,4.72a24.77,24.77,0,0,1,10.42,6.6c1.91,2.13,3.1,2.34,4.65-.44,2.48-4.48,6.77-6.1,11.6-5.53s8.05,3.39,9.75,8a11.16,11.16,0,0,1-2.41,11.94,11.34,11.34,0,0,1-11.6,3.8,9.42,9.42,0,0,0-2.77-.6A47.33,47.33,0,0,0,259,136.21a23.62,23.62,0,0,1,3,3.79c.5.91,1.31,2,.31,2.9s-2.12.14-2.92-.53a54.41,54.41,0,0,1-9.48-9.76,57.56,57.56,0,0,1-6.68-12.34,19.87,19.87,0,0,0-5.71-8.12c-4.65-4.11-10.3-6.08-16.23-7.11-10.39-1.8-20.38-.51-29.66,4.83a20.44,20.44,0,0,0-9.08,10.81c-1.6,4-2.73,8.45-6.69,11.12-2.18.72-3.19-.22-3.35-2.37.14-1.74,1.38-3.15,1.69-5.18-6.66,1.32-11.84-.46-14.83-6.64a12,12,0,0,1,3.95-15,11.73,11.73,0,0,1,15.66,1.89c3,3.3,3,3.26,6.49.43a34.09,34.09,0,0,1,9.81-5.41c2.67-1,3.18-2.56,1.64-4.94A20.34,20.34,0,0,0,190.5,88c-3.58-2.18-5.4-2.09-8.52.76-1.88,1.71-3.89,1.16-6,1.1-9.14-.24-17.95.71-24.77,7.88a21.56,21.56,0,0,0-4.89,9.11c-.57,1.93-1.52,3.42-3.48,4.08-18.73,6.34-27.49,21.12-32.77,38.8-2.07,7-2.93,14.15-4.08,21.29-.43,2.7.71,3.92,3.23,4.53,8.38,2,14.39,7.43,19.47,14.06,1.05,1.37,2.16,2.76,2.21,4.64a9.44,9.44,0,0,1-4.69,5.3c-2-.93-2.5-3.05-3.62-4.65-7.15-10.31-17-14-29.25-12.54-6.61.79-12.63,3.19-18.52,6.09A11.41,11.41,0,0,1,69.52,184.93Z"/><path class="cls-1" d="M184.49,226.69c-.77-1.23-2-2.38-2.24-3.71-.9-4.41-3.74-4.77-7.56-4.75-11.33,0-22.66.49-34-.23.92-1.25,2.32-1.27,3.64-1.26,10.57,0,21.14-.28,31.72.14,2.55.1,1.81-2.59,2.57-4a19,19,0,0,1-.37-9.9c.6-2.5-.3-4.25-2.5-5.75-9.26-6.28-15.3-14.82-17.39-25.93-.41-2.21-2.06-3.73-2.84-5.72-.44-1.1-1.16-2.4.14-3.26,1.12-.73,1.93.38,2.72,1.08,8.65,7.7,20.27,7.78,28.85-.3,5.86-5.52,11.82-10.47,20.15-11.51a2.44,2.44,0,0,0,2.23-2.45c.18-2-.9-3.23-2.63-4-6.27-3-10.78-7.78-14.44-13.53a31,31,0,0,1-3.72-8.41c-1.42-5-.92-9.56,3.45-13.07a29.19,29.19,0,0,1,17-5c5.84,0,11.71-.5,17.46,1.35a25.65,25.65,0,0,1,10.07,5.47,12,12,0,0,1,1.64,10c-2.7,9.29-7.3,17.32-16.25,21.87-3.43,1.74-5.48,3.71-4.54,7.87,7.13.17,13.24,3.24,18.37,8.39,4.65,4.65,10,8,16.62,9,5.06.78,9.56-.12,13.5-3.46a11.74,11.74,0,0,1,1.89-1.48,1.88,1.88,0,0,1,2.24-.08,1.59,1.59,0,0,1,.44,1.83c-3.9,11.65-6.87,23.86-18.69,30.71-1.69,1-3.66,1.86-3.9,4.24-1,2.85-1.73,5.71-.95,8.78.27,1,.32,2.17-1.24,2.34a2.17,2.17,0,0,1-1-.42c-2.1-2.78-1-6.17-1.75-9.22-.56-2.35.15-4.95-2.23-6.86-.89-.72-.79-2.46-.58-3.8.56-.73,2-1.19.74-2.46-3.7-.54-3.1-4.33-4.76-6.42-.55-.7-.23-2.09-1.81-2.83.72,2.18.42,3.7-2.12,3.52-2.92-.31-5.8-.82-8.74,0-5.27,1.45-6.65,2.88-6.72,8.38-.09,6.93-1,13.81-1.16,20.74-.6,1.59-.43,3.37-1.24,4.9-2,1.31-1.88-.71-2.53-1.55a7.31,7.31,0,0,1-.36-1.21c-.41-2.46.13-5-.74-7.44a13.68,13.68,0,0,1-.31-3.25c.21-6-1-11.81-1.08-17.73-1.35-2.23-3.78-2.23-5.9-2.86-2.86-.76-5.71-1.12-8.53.16-.31.17-.62.32-.94.47-1.67.68-2.55,2.14-3.49,3.54a19.35,19.35,0,0,0-1,1.77,12.24,12.24,0,0,0-1.32,3.9,5.9,5.9,0,0,1-.31,1,14.56,14.56,0,0,0-1.06,4.11,17.39,17.39,0,0,1-.35,2.26c-.56,2-.32,4-.33,6,0,.61,0,1.23,0,1.85-.47,3.56,1,6.9,1.19,10.38-.09,1.68-2.17,3.39.84,5C189.84,224.57,187.93,226.53,184.49,226.69Z"/><path class="cls-1" d="M179.31,212.14c1.12,2.43-.28,5.7-2.47,5.72q-18.06.09-36.13.14c-3.52,0-5.62,1.12-7.23,4.88-3,7.05-10.41,10-17.65,7.84-1.71-.51-2,.35-2.71,1.29-4.68,5.87-11,8.23-18.31,8.37a11.45,11.45,0,0,1-9.4-4.61c-1.25-1.56-1.85-1.41-3.38-.22-10,7.79-21.59,3.44-24.67-8.94-.68-2.73.64-6.6-2.08-8-2.24-1.15-5.5-.31-8.31-.31H6c-.67,0-1.34,0-2,0-2-.07-3.94-.36-4-2.91s1.75-3.06,3.82-3.07,4,0,6,0c14.33,0,28.67-.08,43,.05,2.6,0,3.54-.42,3.93-3.31,1.28-9.51,4.8-18,12.74-24.13a6,6,0,0,1,4.73,3.24c.36,1.82-1.18,2.53-2.11,3.58C63,202,61.43,213.8,64.85,226.59c1.06,4,3.61,5.55,7.39,5.43,4.06-.13,6.15-1.82,7.39-6a12,12,0,0,1,.76-2.28,4.1,4.1,0,0,1,3.81-2.47c1.7,0,2.6,1.2,3.26,2.58s.93,3.07,1.59,4.54c1.87,4.23,4.9,5.72,9.37,4.63,6.65-1.63,8.58-3.73,9.37-10.38.25-2,1-3.62,3-4.28a3.72,3.72,0,0,1,4.49,1.76c1.57,2.35,3,5.38,6.4,4.17a9.89,9.89,0,0,0,6.76-8.26,25.75,25.75,0,0,0-1.5-12.22c-.49-1.43-1.7-2.86-.47-4.5.41-2.29,2.63-3.11,3.83-4.76,3.58,1.61,3.81,5.25,4.78,8.3,2.6,8.14,2.5,8.17,10.91,8.17,9.32,0,18.64,0,28,0C175.81,211.06,177.75,210.76,179.31,212.14Z"/><path class="cls-2" d="M317.79,148.73c1.64.8,3.45,1.37,4.21,3.29a4.5,4.5,0,0,1-.46,2.86c-2.49,5-4.21,5.46-8.47,2.27a19.26,19.26,0,0,0-2.67-1.72,5.23,5.23,0,0,0-4.65-.44,13.34,13.34,0,0,1-1.64.36c-1.52,0-2.45,1-3.38,2.05a13.11,13.11,0,0,0-2.28,8.73c.22,4.66-.68,5.67-5.19,6.31-4.7.67-6,2-7.25,6.68-1.37,5.11-.22,10.11.46,15.12.55,4.1,1.84,8.08,2.72,12.12.77,3.48,2.7,4.76,6.23,4.74q26.49-.15,53,0c3.52,0,7.24-1,10.56,1.18.57,1.6.52,2.42-1.69,2.33-18.61-.74-37.22-.17-55.84-.33-2.48,0-5-.12-7.35,1.11,18.61.67,37.24.79,55.82.25,10.11-.29,20,1.65,30.13,1.15,12.82-.63,25.71-.18,38.57-.12,2,0,4.07-.41,5.66,1.31a30.56,30.56,0,0,1-3.15.32q-84.63,0-169.26,0a30.56,30.56,0,0,1-3.15-.32c-3.46-3.19-3.52-4.23-.33-6.47,9.08-.87,18.18-.18,27.27-.4,1.07,0,2.15-.07,3.21,0,2.73.2,3.22-1.05,2.52-3.43a106.73,106.73,0,0,1-3.78-20.9,27.87,27.87,0,0,1,2.72-15.2,11.79,11.79,0,0,1,6.67-6.06c2.42-.87,3.51-2.5,4-5,2.22-10.6,11.2-15.91,21.71-12.88C314.39,148.15,316.13,148.22,317.79,148.73Z"/><path class="cls-1" d="M424.25,218q-30.33-.06-60.66-.15c-1.4,0-3.22.86-3.87-1.57-.26-1-1.65-1.07-2.48-.61-3.46,1.9-7.21,1.38-10.88,1.39q-16.28.08-32.54,0c-7.57,0-15.15.29-23-.86a9.25,9.25,0,0,1,6.81-3.15h56.65a10.68,10.68,0,0,1,3.45.75c1.69.57.83-1,.93-1.7l.55-.2c.95.08,2-.4,2.84.35.47,1.18-.74.94-1.21,1.37,1.82-.22,3.51-1.86,5.38-.3a15.91,15.91,0,0,0-.84,2.39c.41-1.4.82-2.5,2.3-2.61,19-.1,38,0,57.06-.05C426.53,214.87,427.07,216.58,424.25,218Z"/><path class="cls-2" d="M184.49,226.69c1-.94,3-.44,3.61-2.17-.21-1.84-3.13,1.43-2.66-1.3.22-1.3,0-2.89,1.37-3.83,2.18.17,2.2,2.4,3.39,3.52a9.8,9.8,0,0,1,.55.87,8.13,8.13,0,0,0,1.27,1.6c.27.24.52.48.77.74A24.23,24.23,0,0,0,208,232.21a9.61,9.61,0,0,1,1.77.29c5.46,1.08,10.67-.36,15.89-1.57,8.88-2.79,13.5-9.05,14.79-18.05a13.8,13.8,0,0,1,.24-1.81c.94-9.14-.79-17.65-5.95-25.35-.65-1-1.65-1.77-1.51-3.12.31-.29,1.84.11.78-.88a2.33,2.33,0,0,1-.78-2.75c.28-.82,1.14-.52,1.72-.36a2.75,2.75,0,0,1,2.33,2.39c0,1.86-.48,3.46,2.25,4.13,1.61.39-1.15,1.76-.08,3.13.8-.49,1.91-2.51,2.84-.13-.75,1-.08,2.64-1.61,3.22,1.54,1.23-.56,4.86,3.23,4.77.69,0,0,1.38,0,2.12.36,4.41.31,8.88,1.56,13.19-.49,2.54.91,4.83.94,7.3-2.1,5.84-4.59,11.39-10.59,14.34-1.11-.26-1.07-1.29-1.4-2.07a3.18,3.18,0,0,0-1.74,2.47,12,12,0,0,1-.81,2.23c-9.7,4.68-19.74,5-30,2.37.54-1.38,1.68-1,2.71-.93,3.51.29,7,.27,9.51.73-3.69-1.78-8.78-.18-13.54-1.41-.13-.23-.08-.62-.29-.73-.46-.26.16-.18-.14.26a3.44,3.44,0,0,1-2,1,15.63,15.63,0,0,1-7.24-3.87c.54-1.55,1.7-1.22,3.33-.78a7.09,7.09,0,0,0-5-.57A11.74,11.74,0,0,1,184.49,226.69Z"/><path class="cls-2" d="M366,213.85c-1.84-1.42-3.78,1.2-5.51-.39l1.49-1.22a2.56,2.56,0,0,0,1.57-2.55c0-7.82.08-15.64.12-23.46,1.42,6.88.7,13.83.63,20.76-.06,5.33-.18,5.33,5.34,5.33,17,0,34,0,50.93,0,1.36,0,2.94-.74,4.1.68-1.57,1-3.33.81-5.05.81Z"/><path class="cls-1" d="M198,237a2.5,2.5,0,0,1,2.4-1.46c2.41,1,4.81,1.91,7-.42a1,1,0,0,1,1.44-.06c2.26,2.77,5.72,1.41,9,2.52-4.12,2.18-7.87.27-11.5.56-1.51.12-3-1-4.62-.08A6.54,6.54,0,0,1,198,237Z"/><path class="cls-1" d="M246.39,218.73c-1.85-.63-1.94-3.26-1.74-3.65,1-1.86-1-2.49-1.34-3.86l2.14.21h0c.56.64,1.35.25,2,.44l.39.37c-2.51,2.31.58,3.81.83,5.73A3.08,3.08,0,0,1,246.39,218.73Z"/><path class="cls-1" d="M231.85,235.7c-.29-4.54-.29-4.54,3.94-5.73-.1,1.07-1,2.16,0,3.1Z"/><path class="cls-1" d="M189.08,231.79c1.58-3.89,4.09.79,5.93-.64a7.45,7.45,0,0,1,0,1.94c-.29,1.3-1,.42-1.36.08-1-1-1.93-.54-2.89,0A2.48,2.48,0,0,1,189.08,231.79Z"/><path class="cls-3" d="M281.45,2.37c2.18-.57,2.14-3.21,4.21-2.1a1.5,1.5,0,0,1,.26,1.42C285,3.21,283.59,2.22,281.45,2.37Z"/><path class="cls-4" d="M179.31,212.14c-13.64.06-27.28.07-40.92.23-2.21,0-2.65-1-2.89-2.78a38.78,38.78,0,0,0-5.17-15c-4.92-9.55-12.44-15.9-23-18.4-1.89-.45-2.83-.9-2.6-3,1.68-15.67,4.68-30.92,13.5-44.41,5.83-8.92,13.62-15.33,23.84-18.63,1.52-.49,2.63-.9,3.12-3,2.64-11,10.42-16.31,21.14-17.86a73.58,73.58,0,0,1,8.8-.51c2.81-.06,6,1.63,7.59-2.62.57-1.52,2.91-1.22,4.43-.73A18.22,18.22,0,0,1,199,96.6c.81,2,.11,2.77-1.84,3.39a32.47,32.47,0,0,0-15.8,10.52c-1.8-4.28-4.16-7.67-8.79-8.71a10.69,10.69,0,0,0-7.75,1.09A10.94,10.94,0,0,0,159.94,117c2.6,6,8.22,7.84,16.49,5.16l-3.29,7.35c-1.41,5.22-5.13,8.7-9,12.05a2.36,2.36,0,0,0-.42.46,3.58,3.58,0,0,0,.51-.46c4.26-3,7.38-7.29,11.49-10.45,3-3.33,4.57-7.41,6.15-11.5,1.73-4.46,4.45-8.11,8.84-10.31,1.41-.34,1.85.32,1.66,1.62-3.61,3.64-4.09,7.88-2.4,12.54,3.47,9.54,8.9,17.37,18.82,21.11,3.14,1.18,1.2,3.61,1.65,5.43.38,1.57-.45,2.42-2.17,2.56-7.62.64-13.48,4.62-18.73,9.85-6.28,6.27-13.81,8.85-22.67,7.36-4.81-.8-8-4-10.84-7.49-.93.66-.78,1.37-.36,1.84,3.15,3.53,3.76,8.09,5.12,12.36A35.76,35.76,0,0,0,177,196.69c2.2,1.32,2.91,2.65,2.46,5.07A29.9,29.9,0,0,0,179.31,212.14Z"/><path class="cls-4" d="M317.79,148.73c-.86,1.42-1.85,1.29-3.33.73-12-4.52-21.21,1-22.73,13.44-.18,1.47-.12,2.56-2.22,3-6.58,1.26-9.37,6.08-10.31,12.21-1.6,10.44.81,20.46,3.57,30.38.87,3.11.73,4-2.84,4-10.69-.25-21.38-.13-32.07-.15h0c-2-3.79,0-7.82-.72-11.69-.15-1.66.68-2.56,2.1-3.39,10-5.93,16.2-14.56,18.27-26,.37-2.08,1.73-3.5,2.52-5.28.26-.59,1-1.09.21-1.66s-1.16,0-1.73.41c-10.71,8-20.8,7.47-30.68-1.83-5.56-5.23-11.41-9.7-19.4-10.23-1.43-.09-2.39-.66-1.92-2.22.6-2-1.61-4.45,2-5.92,10.31-4.15,16-12.48,19-22.86a11.61,11.61,0,0,0-1.21-8.87,1.54,1.54,0,0,1,2.08-1c3.32,2.17,4.87,5.55,6.15,9.09,3.36,9.37,9.75,16.33,17.7,22.13-4.35-6.92-10.37-12.87-12.66-21.17,9.09,3.34,15.21,1.35,17.65-5.56a11,11,0,0,0-6.67-14c-6.54-2.32-12.19,1-15.14,9.22a33.82,33.82,0,0,0-16.52-11.47c-1.78-.6-1.22-1.84-1-2.93,1.07-4.81,7.48-10.93,12.26-11.7,1.91-.3,4.23-.41,4.87,1.69.82,2.71,2.5,2.21,4.33,2a40,40,0,0,1,15.13,1c8.94,2.4,15.14,7.71,17.23,17.06a3.23,3.23,0,0,0,2.39,2.78c17,5.31,26.2,18.07,32,33.94C316.75,145.43,317.25,147.09,317.79,148.73Z"/><path class="cls-4" d="M126.5,199.32c1.72,5.05,3.71,10,3.37,15.53a11.51,11.51,0,0,1-5.35,9.35c-4.08,2.73-6.75,2.13-9.28-2.1-.94-1.59-1.53-3.69-4-3s-2.72,2.83-2.33,4.85c1,5-2,8.31-11.7,10.51-4.53,1-8-1.62-9.69-6.95a8.55,8.55,0,0,1-.41-1.54c-.23-2-.95-3.89-3.26-3.86S81.05,224,80.74,226c-.69,4.54-3.44,6.9-8.15,7.27-4.43.35-7.49-1.37-8.69-6-3.9-14.91-1.66-28.35,10.35-39.12a43.18,43.18,0,0,1,27.72-7C113.7,182.29,121.22,189.36,126.5,199.32Z"/><path class="cls-4" d="M310.57,154.34c.87.66,2,.77,2.89,1.55,4.56,3.91,5.23,3.72,7.44-1.58,2.32-2,2.58.14,3.19,1.58a9,9,0,0,1-.26,2.74c-.4,2.5.31,4.46,2.77,5.49a4.07,4.07,0,0,0,5-1.34,4.55,4.55,0,0,0,.23-6.14,3.73,3.73,0,0,0-.89-.78c-1.14-1.08-3-1.08-3.82-2.68.47-2.88,2.63-2.14,4.47-2.07,5,1.8,5.94,3.2,5.64,8.06-.25,4,.5,4.69,4.5,4,1.42-.26,2.82-.79,4.23,0,1,1,3.24,1.69,1.09,3.65a5.52,5.52,0,0,1-2.36,0c-2.28-.31-4.27.07-5.47,2.29a4.71,4.71,0,0,0,.41,5.27,4.81,4.81,0,0,0,5.67,1.8q.39-.12.75-.27c2.94-1.51,3.48-3.76,2.08-6.62a3.05,3.05,0,0,1-.11-1c.15-3.32.15-3.32,1.73-3.37,7.55,7,8.45,16.44,9,25.84.38,6.9.07,13.84.06,20.77.51.34.46.56-.14.67v0c-1.19.13-2.38.38-3.57.39-20.47,0-40.95-.09-61.42.08-3.2,0-4.35-1.05-5.09-4-2.38-9.47-5.2-18.86-3.89-28.8.87-6.59,2.72-8.28,9.29-8.34,3.19,0,3.83-1.61,3.57-4.37-.4-4.11-.88-8.32,3.22-11.16a28.35,28.35,0,0,1,3.4-1.47l1.55-.24C307.3,154.38,308.94,154.3,310.57,154.34Z"/><path class="cls-4" d="M123.48,89.65c.57-19.47,1.92-38.74,10.18-56.74a30.46,30.46,0,0,1,9.54-12.17c2.46-1.8,4.13-1.54,6.07.76,7.25,8.65,12.95,18.33,18.85,27.88,1.26,2,2.27,4.27,3.66,6.21,1.56,2.17,1.07,2.95-1.41,3.65A92.24,92.24,0,0,0,139.1,75,130.11,130.11,0,0,0,123.48,89.65Z"/><path class="cls-4" d="M252.71,58.25c7.32-12.76,14.57-24.91,23.34-36.11,2.41-3.07,4.51-3.33,7.57-.76,5.66,4.76,8.93,11,11.29,17.7,5.67,16.21,7.3,33.07,7.9,51.16-7.1-8.1-14.24-14.79-22.59-20.06A101.87,101.87,0,0,0,252.71,58.25Z"/><path class="cls-5" d="M238.36,111.7l-2.08,1a22.58,22.58,0,0,0-13.21-6c-10.6-1.31-21.08-1.63-30.68,4.28a2.88,2.88,0,0,0-1.66-1.62C203.54,100.31,228.17,101.55,238.36,111.7Z"/><path class="cls-3" d="M214,72.38c1.45,7.51,1.24,15.19,2.35,22.73.36,2.42-1.07,2.3-2.61,2.17-1.39-.12-3.39.8-3-2.15.74-6,.6-12,1.77-17.94C213.77,75.83,211.66,73.4,214,72.38Z"/><path class="cls-6" d="M163.41,141.4c3.93-3.4,6.71-7.73,9.73-11.87.06,1.85,1.06,2.18,2.6,1.6a34.6,34.6,0,0,1-11.39,11.22C163.51,142.55,163.19,142.24,163.41,141.4Z"/><path class="cls-7" d="M176.27,107.48c-.12,1.89-1.12,3.06-2.94,3.13a2.65,2.65,0,0,1-3-2.55,2.73,2.73,0,0,1,2.63-3.28C174.82,104.64,175.92,105.72,176.27,107.48Z"/><path class="cls-8" d="M260,104.58c1.87.5,3.07,1.54,2.89,3.41a3,3,0,0,1-5.95-.42C257,105.68,258.46,104.91,260,104.58Z"/><path class="cls-9" d="M331.56,151.11c-1.47.62-3.6.15-4.11,2.42-.26,1.15-1.29,1.56-2.12,2.16-.61.31-1.2.78-1.91.25-.53-1-.8-2.45-2.52-1.63.37-.76.73-1.53,1.1-2.29C325,149.9,328.18,149.38,331.56,151.11Z"/><path class="cls-10" d="M346.71,166.43c1.73-1.56-.77-2.13-.78-3.29a4.11,4.11,0,0,1,3.79,1.69c-1.33.25-1.38.9-.66,1.9s0,1.25-.87,1.33C347,168.11,346.45,167.66,346.71,166.43Z"/><path class="cls-11" d="M214,72.38c-1.52,1.28.13,3.57-1.51,4.81.08-1.86.13-3.72.28-5.58,0-.43.31-1.19,1-.65C214,71.19,214,71.89,214,72.38Z"/><path class="cls-12" d="M131.6,109.61a2.16,2.16,0,0,1-2.19,1.88A2.16,2.16,0,0,1,131.6,109.61Z"/><path class="cls-13" d="M211.84,66.74c.3-.78.64-2.25.88-2.24,1.15.08.43,1,.38,1.61,0,.31-.41.59-.64.88Z"/><path class="cls-2" d="M358.61,212.11a.48.48,0,0,1,.14-.67c1,.68,2.71-1.66,3.26.8Z"/><path class="cls-12" d="M133.34,109.69a5.08,5.08,0,0,1,1.21-.31c.46,0,1.18-.07.91.75-.07.2-.67.34-1,.29S133.85,110,133.34,109.69Z"/><path class="cls-14" d="M241.32,213.06c-.92,9.29-6.48,16.15-15,18.53-2.17-.18-4.37,1.64-6.51-.09.11-2.07,1.7-.74,2.9-1.29-3.42.15-6.13,1.9-9.18,2-4.32.57-8.53-.39-12.76-1a2.7,2.7,0,0,1-2.59-2.15c-.48-3.4-2.37-3.71-5.11-2.68a1.68,1.68,0,0,1-1.5-.38h0c.08-1.05-.78-1.27-1.44-1.66l-.46-.66c1.43-4,1.61-7.83-2.48-10.49-1.91-1.25-1.19-3.34-2-4.92V206.6c1-2.15-.16-4.52.69-6.69l.25-2.14c1.51-1.05.78-2.8,1.3-4.16l-.06,0c1.72-1.18.88-3.32,1.78-4.8,0-.65-.12-1.31.68-1.6,1.72-1,2.41-3.06,4.1-4.1l-.05,0c2.14.05,4.73-2.6,6.3,1.07.14.32.57-.19.79-.38.85-.74,1.94-.68,2.94-.92,1.67,0,2.56,1.12,3.51,2.21,1,2.82.35,5.56-.45,8.28a15.73,15.73,0,0,0-.1,9.24,1,1,0,0,0,1.24,0c.7-1.55-.41-4.58,1.39-4.59,2.4,0,.92,3.07,1.73,4.61.22.43,0,1.06.39,1.51l.14,3c.86,2.72-.24,5.6.63,8.32l.22-.07c.29,2.17,1.22,4.26.89,6.51a10.51,10.51,0,0,0,.07,5.64c1.16-3.05-1.17-6.56,1.81-9a15.79,15.79,0,0,1,1.5,8.25c.14,1.25.9.48.44.75-.15.09-.28,0-.26-.29.26-4.17-1.95-8.19-.85-12.12.15-.83-.88-.24-.34-.3.06,0,0,.08.07.24.16.77.4,1.73-.62,1.89s-.77-.85-.79-1.45a6,6,0,0,1,.28-2.74c0-8.53.9-17,1.38-25.52a3.54,3.54,0,0,1,2.6-3.5c4.7-1.87,9.42-2.88,14.38-1.13,8,8.11,9.32,18.13,8.33,28.84C240.94,211.92,240.48,212.41,241.32,213.06Z"/><path class="cls-14" d="M185.2,208.23A12.48,12.48,0,0,0,189,213.4c3.77,2.94,3.9,8.26.67,10.24l-2.83-4.25C186,215.71,184.63,212.11,185.2,208.23Z"/><path class="cls-14" d="M211.63,204.19c-1.41-1.6-1.28-3.77-1.86-5.67-2.05,1.63,1.8,4.35-1.29,5.68-2.32-4.29-2-8.75-.87-13.27,1.45-1.74-.8-5,2.43-6C211.5,191.27,211.51,197.73,211.63,204.19Z"/><path class="cls-15" d="M182.4,198.34a17,17,0,0,1,0,11.75Z"/><path class="cls-16" d="M214.82,212.75l.21,3.56c1.24-.47.17-1.84,1.54-2.59-.67,5,1.44,9.62.42,15.35-.78-4-.35-7.46-2.07-10.4a1.31,1.31,0,0,1-.76-.4c0-.14-.1-.27-.16-.41Z"/><path class="cls-14" d="M203.65,183.3c-1.25,1.09-4,1.93-4.18,1.5-1.26-3.29-3.91-.62-5.58-1.6,3.11-2.35,6.42-1.76,9.77-.67.28.17.37.34.28.52S203.75,183.3,203.65,183.3Z"/><path class="cls-2" d="M247.13,200.55c1.4,3.82.5,7.79.72,11.69-.87,0-1.82.14-2.39-.8.52-.06,1.29-.26,1.06-.8C245,207.14,246.49,203.88,247.13,200.55Z"/><path class="cls-17" d="M203.65,183.3c0-.25,0-.51,0-.77a10.94,10.94,0,0,1,6.38,2.4c-1.86,1.81.36,4.62-1.57,6.41-1.47-1.91-.45-4.44-1.61-6.44Z"/><path class="cls-18" d="M212.6,222.49c0-2.36,0-4.72,0-7.08l1.38,2.45h.36a13.42,13.42,0,0,1,0,4.6C214,224.29,213.23,223.59,212.6,222.49Z"/><path class="cls-14" d="M189.16,188.86c0,1.81,1.29,4.11-1.78,4.8A8.07,8.07,0,0,1,189.16,188.86Z"/><path class="cls-14" d="M212.4,215.48c-1.47-2.68-.41-5.55-.63-8.32C212.65,209.88,212.46,212.69,212.4,215.48Z"/><path class="cls-14" d="M187.44,193.61c-.76,1.28,2.79,3.91-1.3,4.16A7.71,7.71,0,0,1,187.44,193.61Z"/><path class="cls-14" d="M193.94,183.16c-1.13,1.61-1.78,3.69-4.1,4.1C190.79,185.48,191.74,183.69,193.94,183.16Z"/><path class="cls-14" d="M185.89,199.91c-.2,2.23.85,4.6-.69,6.69C185,204.33,184.88,202.06,185.89,199.91Z"/><path class="cls-19" d="M230,179.94h-4.51v-.4h4.59Z"/><path class="cls-20" d="M186.23,189.58c-.28-1.8-.43-2.79.9-3.32C187.49,187.38,186.8,188.16,186.23,189.58Z"/><path class="cls-21" d="M240.63,191.35c.54-1.08,1.07-2.15,1.61-3.22C241.79,189.24,243.87,191.62,240.63,191.35Z"/><path class="cls-22" d="M310.57,154.34c-1.65.66-3.31,1.4-4.89-.15A5.23,5.23,0,0,1,310.57,154.34Z"/><path class="cls-22" d="M304.13,154.43a4.17,4.17,0,0,1-3.4,1.47A3.32,3.32,0,0,1,304.13,154.43Z"/><path class="cls-2" d="M366,213.85c0,1.18.07,2.42-1.59,3.05-.09-1.45.78-2.24,1.59-3.05Z"/><path class="cls-14" d="M219.74,231.53c2.18.42,4.37-.77,6.55.06a30.74,30.74,0,0,1-17.23,1.65c.26-.54.89-.34,1.55-.72-1.13.42-2.13-.1-2.93.57-6.28-.35-11.9-2.18-16.14-7.14,1.11-.42,2.23-.79,3.32-1.26,1.85-.79,3.68-.21,3.6,1.63-.23,5,3.55,5.17,6.27,4.78,3-.44,5.7,1.16,8.57.43l.51.15c1.82.45,3.58-.41,5.39-.23Z"/><path class="cls-23" d="M241.32,213.06c-.67.17-1.66,1.15-1.91,0-.29-1.3,1-1.56,2.1-1.65C241.45,212,241.38,212.52,241.32,213.06Z"/><path class="cls-14" d="M190.1,224.3c.9.24,1.69-1.12,2.49-.28.16.16-.67,1.27-1.05,1.94A2.16,2.16,0,0,1,190.1,224.3Z"/><path class="cls-1" d="M202,234.15c.09.15.46.49.4.7-.23.8-1,.67-1.59.68-.87,0-.24-.54-.2-.73C200.78,234.23,201.23,234,202,234.15Z"/><path class="cls-14" d="M207.68,233.09c.9-1,2-.85,3.78-.38l-2.4.53Z"/><path class="cls-24" d="M113.54,144.81c0,2.14.53,3.74-2.14,4.66Z"/><path class="cls-25" d="M153.8,157.22c1.08,1.87,1.87,2.86,1.8,4.59C153.59,160.9,153.72,159.56,153.8,157.22Z"/><path class="cls-26" d="M163.41,141.4l.94.95a3,3,0,0,1-2.62,1.86A3.52,3.52,0,0,1,163.41,141.4Z"/><path class="cls-5" d="M144.08,111.76c.71.08,1.3.16,1.1.9a3.1,3.1,0,0,1-.65.92l-1.3-1.45Z"/><path class="cls-27" d="M187.83,160.63c.13.43,0,.79-.48.7a1.25,1.25,0,0,1-.83-.65,1,1,0,0,1,.33-.89C187.59,159.49,187.57,160.26,187.83,160.63Z"/><path class="cls-28" d="M268.3,144.9c0,.66-.39,1.1-.92.95a2.82,2.82,0,0,1-1.51-1c-.31-.49.16-1.09.7-1.17C267.49,143.49,267.92,144.22,268.3,144.9Z"/><path class="cls-3" d="M270.88,94.48c.26,1.29.53,2.59.93,4.52C269.67,97.49,270.91,95.75,270.88,94.48Z"/><path class="cls-29" d="M272,159.23l1.27-3.6c.4,2.29.57,3.41-.38,4.47C272.38,160.07,272.28,159.59,272,159.23Z"/><path class="cls-30" d="M268.27,118.35a6.43,6.43,0,0,1,.81,1.54,1.13,1.13,0,0,1-.4,1c-.62.36-1.07-.09-1.08-.66A6.25,6.25,0,0,1,268.27,118.35Z"/><path class="cls-31" d="M272,159.23l.89.87c-.16.71-.2,2-1.09,1.62C270.35,161.06,272,160.1,272,159.23Z"/><path class="cls-24" d="M68.26,230.39c-.14-1.85-1-3.81.95-5.34Z"/><path class="cls-32" d="M116.48,220.4c1.61.4,1.86,1.2,1.92,2.19C117.09,222.54,117,221.52,116.48,220.4Z"/><path class="cls-33" d="M338.77,191.43c-.57,2.85-2.77,4.26-5.14,5.14a52.8,52.8,0,0,1-16.4,3.5c-9.94.37-13.37-3.41-11.35-13.15,1.41-6.79,4.89-12.56,12-14.88,6.59-2.15,11.8.9,16,5.58,3.43,3.82,7.15,7.83,4.89,13.8-.71-.78-.34-1.74-.46-2.62C338.35,189.7,338.05,190.65,338.77,191.43Z"/><path class="cls-34" d="M299.35,181.08c0,3-2.55,5.92-5.32,6a5.92,5.92,0,0,1-6-6.06c.06-3.54,2.34-5.91,5.69-5.89S299.36,177.57,299.35,181.08Z"/><path class="cls-35" d="M303.36,168.7c-2.6-3-3.54-6.17-.85-9.64,1.57-3,4.22-2.17,6.56-1.65s3.33,2.52,3.44,4.77c.07,1.39.49,2.89-.4,4.22l0,0a4.76,4.76,0,0,1-2.38,2.46h0C307.59,170.56,305.47,170.27,303.36,168.7Z"/><path class="cls-36" d="M346.71,166.43c.49.55,1,1.09,1.48,1.63.08.27.17.53.25.79,1.34,2.09,1.75,4.08-.6,5.79-.38-2.5-2.38-2.36-4.22-2.47,1.5.41,3.52-.07,3.88,2.22.53,1.12-.31,1.73-.89,2.43-3.18,1.17-6.11,1.05-8.14-2a5.7,5.7,0,0,1,.25-7.09C341,164.89,343.78,165.17,346.71,166.43Z"/><path class="cls-37" d="M323.42,155.94l1.54-.81c2.19-1.62,4.29,1.47,6.47.12,3.33,1.67,3,4.58,1.84,7.13-1.29,2.75-3.92,4.15-7,2.94a5.59,5.59,0,0,1-3.62-6.73A24.89,24.89,0,0,1,323.42,155.94Z"/><path class="cls-22" d="M312.11,166.4c.17-2.23.54-4.5-.84-6.53-1.84-2.7-4.87-3-8.76-.81.25-1.62-1.53-.44-1.95-1.57,3.62-1.82,7.53-2.28,10.58.25C313.65,159.82,313.87,163.27,312.11,166.4Z"/><path class="cls-38" d="M331.43,155.25c-.47,1.09-.31,3.26-2.45,1.21a5.37,5.37,0,0,0-4-1.33l2.49-1.6C329,153.72,330.47,153.84,331.43,155.25Z"/><path class="cls-10" d="M346.61,176.82l1-2.27h0c2-1.65,1.27-3.69.83-5.69C350.85,172,350.39,174,346.61,176.82Z"/><path class="cls-22" d="M309.75,168.82c.79-.82,1.58-1.64,2.38-2.45-.91,2.75,2.85-.71,2,1.46S311.4,169.25,309.75,168.82Z"/><path class="cls-22" d="M303.36,168.7c2.13.59,4.25,1,6.4.12C307.58,171.18,305.45,171.37,303.36,168.7Z"/><path class="cls-39" d="M315.56,201.13h6.09v.4h-6.09Z"/><path class="cls-3" d="M130.77,77.92c-.38.6-.93,1.41-1.46,1.08a3.13,3.13,0,0,1-.95-2c-.08-.45.5-1.13,1-.75S130.79,77,130.77,77.92Z"/><path class="cls-40" d="M206.86,184.9c1.62,1.88,1.67,4.15,1.61,6.44-1.5,2.79-.38,5.75-.37,8.6,0,1.36.34,2.83.38,4.26h-1.61a20.63,20.63,0,0,1-.8-10.45A30.63,30.63,0,0,0,206.86,184.9Z"/><path class="cls-41" d="M212.6,222.49c.53.47,1.22,1.38,1.47-.09a40.21,40.21,0,0,0,.29-4.53c.19.27.37.54.56.8,0,2.76.06,5.52,0,8.27,0,.86.78,2.24-1,2.48s-1.2-1.2-1.43-2.08C212,225.7,211.36,224.07,212.6,222.49Z"/><path class="cls-14" d="M206.07,193.75c-.09,3.51,1.32,6.91.8,10.45C203.79,200.93,205.23,197.32,206.07,193.75Z"/><path class="cls-14" d="M213.3,231.53a25.27,25.27,0,0,1,9.85-1.56c-1.05,1.28-2.8.23-3.41,1.56h0c-2.15.42-4.29,1-6.43,0Z"/><path class="cls-14" d="M193.29,213.65a4.29,4.29,0,0,1-3.73-2.85C191.61,210.62,192.41,211.63,193.29,213.65Z"/><path class="cls-23" d="M239.83,204.2l.81.81a6.65,6.65,0,0,1,0,4.81c-1.85-1.65-.33-3.78-.81-5.62Z"/><path class="cls-42" d="M239.83,204.2c-2.28-.33-1.37-2-1.68-3.51,1.71,1,1.63,2.27,1.68,3.51Z"/><path class="cls-43" d="M240.64,209.82V205A3.69,3.69,0,0,1,240.64,209.82Z"/><path class="cls-14" d="M213.3,231.53h6.43C217.58,231.87,215.44,234.68,213.3,231.53Z"/><path class="cls-44" d="M338.77,191.43c-1.28-1-.82-2.16-.23-3.35.08,1.11.15,2.22.22,3.34Z"/><path class="cls-45" d="M347.61,174.55c-1.8-2.55-4.32-1.61-6.76-1.18,1.16-3.93,4.65-.18,6.3-2.17.82,1,.17,2.24.46,3.34Z"/><path class="cls-38" d="M326.36,161.27c-.95.27-.4-.71-.57-1.14-.66-1.57.34-2.2,1.62-2.28.88-.06,2,.32,2.1,1.33C329.67,161.24,327.69,160.76,326.36,161.27Z"/></g></g></svg>